<svg xmlns="http://www.w3.org/2000/svg" class="plt-container" width="500.0" height="333.3333333333333">
  <style type="text/css">
  .plt-container {
	font-family: "Lucida Grande", sans-serif;
	cursor: crosshair;
	user-select: none;
	-webkit-user-select: none;
	-moz-user-select: none;
	-ms-user-select: none;
}
.plt-backdrop {
   fill: white;
}
.plt-transparent .plt-backdrop {
   visibility: hidden;
}
text {
	font-size: 12px;
	fill: #3d3d3d;
	
	text-rendering: optimizeLegibility;
}
.plt-data-tooltip text {
	font-size: 12px;
}
.plt-axis-tooltip text {
	font-size: 10px;
}
.plt-axis line {
	shape-rendering: crispedges;
}
.plt-plot-title {

  font-size: 16.0px;
  font-weight: bold;
}
.plt-axis .tick text {

  font-size: 10.0px;
}
.plt-axis.small-tick-font .tick text {

  font-size: 8.0px;
}
.plt-axis-title text {

  font-size: 12.0px;
}
.plt_legend .legend-title text {

  font-size: 12.0px;
  font-weight: bold;
}
.plt_legend text {

  font-size: 10.0px;
}

  </style>
  <rect class="plt-backdrop" width="100%" height="100%">
  </rect>
  <g class="plt-plot">
    <g transform="translate(20.0 10.0 ) ">
      <g transform="translate(29.1 284.3333333333333 ) " class="plt-axis">
        <g class="tick" transform="translate(20.040495867768612 0.0 ) ">
          <line stroke-width="1.0" stroke="rgb(0,0,0)" stroke-opacity="1.0" x2="0.0" y2="6.0">
          </line>
          <g transform="translate(0.0 9.0 ) ">
            <text style="fill:#000000;" text-anchor="middle" dy="0.7em">
            1.0
            </text>
          </g>
        </g>
        <g class="tick" transform="translate(120.24297520661156 0.0 ) ">
          <line stroke-width="1.0" stroke="rgb(0,0,0)" stroke-opacity="1.0" x2="0.0" y2="6.0">
          </line>
          <g transform="translate(0.0 9.0 ) ">
            <text style="fill:#000000;" text-anchor="middle" dy="0.7em">
            1.5
            </text>
          </g>
        </g>
        <g class="tick" transform="translate(220.44545454545454 0.0 ) ">
          <line stroke-width="1.0" stroke="rgb(0,0,0)" stroke-opacity="1.0" x2="0.0" y2="6.0">
          </line>
          <g transform="translate(0.0 9.0 ) ">
            <text style="fill:#000000;" text-anchor="middle" dy="0.7em">
            2.0
            </text>
          </g>
        </g>
        <g class="tick" transform="translate(320.6479338842975 0.0 ) ">
          <line stroke-width="1.0" stroke="rgb(0,0,0)" stroke-opacity="1.0" x2="0.0" y2="6.0">
          </line>
          <g transform="translate(0.0 9.0 ) ">
            <text style="fill:#000000;" text-anchor="middle" dy="0.7em">
            2.5
            </text>
          </g>
        </g>
        <g class="tick" transform="translate(420.85041322314044 0.0 ) ">
          <line stroke-width="1.0" stroke="rgb(0,0,0)" stroke-opacity="1.0" x2="0.0" y2="6.0">
          </line>
          <g transform="translate(0.0 9.0 ) ">
            <text style="fill:#000000;" text-anchor="middle" dy="0.7em">
            3.0
            </text>
          </g>
        </g>
        <line x1="0.0" y1="0.0" x2="440.89090909090925" y2="0.0" stroke-width="1.0" stroke="rgb(0,0,0)" stroke-opacity="1.0">
        </line>
      </g>
      <g transform="translate(29.1 0.0 ) " class="plt-axis">
        <g class="tick" transform="translate(0.0 271.4090909090909 ) ">
          <line stroke-width="1.0" stroke="rgb(0,0,0)" stroke-opacity="1.0" x2="-6.0" y2="0.0">
          </line>
          <g transform="translate(-9.0 0.0 ) ">
            <text style="fill:#000000;" text-anchor="end" dy="0.35em">
            1.0
            </text>
          </g>
        </g>
        <g class="tick" transform="translate(0.0 206.78787878787875 ) ">
          <line stroke-width="1.0" stroke="rgb(0,0,0)" stroke-opacity="1.0" x2="-6.0" y2="0.0">
          </line>
          <g transform="translate(-9.0 0.0 ) ">
            <text style="fill:#000000;" text-anchor="end" dy="0.35em">
            1.5
            </text>
          </g>
        </g>
        <g class="tick" transform="translate(0.0 142.16666666666669 ) ">
          <line stroke-width="1.0" stroke="rgb(0,0,0)" stroke-opacity="1.0" x2="-6.0" y2="0.0">
          </line>
          <g transform="translate(-9.0 0.0 ) ">
            <text style="fill:#000000;" text-anchor="end" dy="0.35em">
            2.0
            </text>
          </g>
        </g>
        <g class="tick" transform="translate(0.0 77.54545454545462 ) ">
          <line stroke-width="1.0" stroke="rgb(0,0,0)" stroke-opacity="1.0" x2="-6.0" y2="0.0">
          </line>
          <g transform="translate(-9.0 0.0 ) ">
            <text style="fill:#000000;" text-anchor="end" dy="0.35em">
            2.5
            </text>
          </g>
        </g>
        <g class="tick" transform="translate(0.0 12.924242424242493 ) ">
          <line stroke-width="1.0" stroke="rgb(0,0,0)" stroke-opacity="1.0" x2="-6.0" y2="0.0">
          </line>
          <g transform="translate(-9.0 0.0 ) ">
            <text style="fill:#000000;" text-anchor="end" dy="0.35em">
            3.0
            </text>
          </g>
        </g>
        <line x1="0.0" y1="0.0" x2="0.0" y2="284.3333333333333" stroke-width="1.0" stroke="rgb(0,0,0)" stroke-opacity="1.0">
        </line>
      </g>
      <g transform="translate(29.1 0.0 ) " clip-path="url(#GdHzSp)" clip-bounds-jfx="[rect (0.0, 0.0), (440.89090909090925, 284.3333333333333)]">
        <defs>
          <clipPath id="GdHzSp">
            <rect x="0.0" y="0.0" width="440.89090909090925" height="284.3333333333333">
            </rect>
          </clipPath>
        </defs>
        <g>
          <path d="M20.040495867768612 12.92424242424238 L20.040495867768612 12.92424242424238 L20.040495867768612 21.83751306165101 L20.040495867768612 30.750783699059582 L20.040495867768612 39.664054336468155 L20.040495867768612 48.57732497387673 L20.040495867768612 57.4905956112853 L20.040495867768612 66.40386624869387 L20.040495867768612 75.31713688610245 L20.040495867768612 84.23040752351108 L20.040495867768612 93.14367816091965 L20.040495867768612 102.05694879832822 L20.040495867768612 110.9702194357368 L20.040495867768612 119.88349007314537 L20.040495867768612 128.79676071055394 L20.040495867768612 137.7100313479625 L20.040495867768612 146.6233019853711 L20.040495867768612 155.53657262277966 L20.040495867768612 164.44984326018823 L20.040495867768612 173.36311389759678 L20.040495867768612 182.27638453500532 L20.040495867768612 191.1896551724139 L20.040495867768612 200.10292580982244 L20.040495867768612 209.01619644723098 L20.040495867768612 217.92946708463953 L20.040495867768612 226.8427377220481 L20.040495867768612 235.75600835945664 L20.040495867768612 244.6692789968652 L20.040495867768612 253.58254963427373 L20.040495867768612 262.4958202716823 L20.040495867768612 271.4090909090909 L33.86152750071244 12.92424242424238 L33.86152750071244 21.83751306165101 L33.86152750071244 30.750783699059582 L33.86152750071244 39.664054336468155 L33.86152750071244 48.57732497387673 L33.86152750071244 57.4905956112853 L33.86152750071244 66.40386624869387 L33.86152750071244 75.31713688610245 L33.86152750071244 84.23040752351108 L33.86152750071244 93.14367816091965 L33.86152750071244 102.05694879832822 L33.86152750071244 110.9702194357368 L33.86152750071244 119.88349007314537 L33.86152750071244 128.79676071055394 L33.86152750071244 137.7100313479625 L33.86152750071244 146.6233019853711 L33.86152750071244 155.53657262277966 L33.86152750071244 164.44984326018823 L33.86152750071244 173.36311389759678 L33.86152750071244 182.27638453500532 L33.86152750071244 191.1896551724139 L33.86152750071244 200.10292580982244 L33.86152750071244 209.01619644723098 L33.86152750071244 217.92946708463953 L33.86152750071244 226.8427377220481 L33.86152750071244 235.75600835945664 L33.86152750071244 244.6692789968652 L33.86152750071244 253.58254963427373 L33.86152750071244 262.4958202716823 L33.86152750071244 271.4090909090909 L47.6825591336563 12.92424242424238 L47.6825591336563 21.83751306165101 L47.6825591336563 30.750783699059582 L47.6825591336563 39.664054336468155 L47.6825591336563 48.57732497387673 L47.6825591336563 57.4905956112853 L47.6825591336563 66.40386624869387 L47.6825591336563 75.31713688610245 L47.6825591336563 84.23040752351108 L47.6825591336563 93.14367816091965 L47.6825591336563 102.05694879832822 L47.6825591336563 110.9702194357368 L47.6825591336563 119.88349007314537 L47.6825591336563 128.79676071055394 L47.6825591336563 137.7100313479625 L47.6825591336563 146.6233019853711 L47.6825591336563 155.53657262277966 L47.6825591336563 164.44984326018823 L47.6825591336563 173.36311389759678 L47.6825591336563 182.27638453500532 L47.6825591336563 191.1896551724139 L47.6825591336563 200.10292580982244 L47.6825591336563 209.01619644723098 L47.6825591336563 217.92946708463953 L47.6825591336563 226.8427377220481 L47.6825591336563 235.75600835945664 L47.6825591336563 244.6692789968652 L47.6825591336563 253.58254963427373 L47.6825591336563 262.4958202716823 L47.6825591336563 271.4090909090909 L61.50359076660013 12.92424242424238 L61.50359076660013 21.83751306165101 L61.50359076660013 30.750783699059582 L61.50359076660013 39.664054336468155 L61.50359076660013 48.57732497387673 L61.50359076660013 57.4905956112853 L61.50359076660013 66.40386624869387 L61.50359076660013 75.31713688610245 L61.50359076660013 84.23040752351108 L61.50359076660013 93.14367816091965 L61.50359076660013 102.05694879832822 L61.50359076660013 110.9702194357368 L61.50359076660013 119.88349007314537 L61.50359076660013 128.79676071055394 L61.50359076660013 137.7100313479625 L61.50359076660013 146.6233019853711 L61.50359076660013 155.53657262277966 L61.50359076660013 164.44984326018823 L61.50359076660013 173.36311389759678 L61.50359076660013 182.27638453500532 L61.50359076660013 191.1896551724139 L61.50359076660013 200.10292580982244 L61.50359076660013 209.01619644723098 L61.50359076660013 217.92946708463953 L61.50359076660013 226.8427377220481 L61.50359076660013 235.75600835945664 L61.50359076660013 244.6692789968652 L61.50359076660013 253.58254963427373 L61.50359076660013 262.4958202716823 L61.50359076660013 271.4090909090909 L75.32462239954398 12.92424242424238 L75.32462239954398 21.83751306165101 L75.32462239954398 30.750783699059582 L75.32462239954398 39.664054336468155 L75.32462239954398 48.57732497387673 L75.32462239954398 57.4905956112853 L75.32462239954398 66.40386624869387 L75.32462239954398 75.31713688610245 L75.32462239954398 84.23040752351108 L75.32462239954398 93.14367816091965 L75.32462239954398 102.05694879832822 L75.32462239954398 110.9702194357368 L75.32462239954398 119.88349007314537 L75.32462239954398 128.79676071055394 L75.32462239954398 137.7100313479625 L75.32462239954398 146.6233019853711 L75.32462239954398 155.53657262277966 L75.32462239954398 164.44984326018823 L75.32462239954398 173.36311389759678 L75.32462239954398 182.27638453500532 L75.32462239954398 191.1896551724139 L75.32462239954398 200.10292580982244 L75.32462239954398 209.01619644723098 L75.32462239954398 217.92946708463953 L75.32462239954398 226.8427377220481 L75.32462239954398 235.75600835945664 L75.32462239954398 244.6692789968652 L75.32462239954398 253.58254963427373 L75.32462239954398 262.4958202716823 L75.32462239954398 271.4090909090909 L89.14565403248781 12.92424242424238 L89.14565403248781 21.83751306165101 L89.14565403248781 30.750783699059582 L89.14565403248781 39.664054336468155 L89.14565403248781 48.57732497387673 L89.14565403248781 57.4905956112853 L89.14565403248781 66.40386624869387 L89.14565403248781 75.31713688610245 L89.14565403248781 84.23040752351108 L89.14565403248781 93.14367816091965 L89.14565403248781 102.05694879832822 L89.14565403248781 110.9702194357368 L89.14565403248781 119.88349007314537 L89.14565403248781 128.79676071055394 L89.14565403248781 137.7100313479625 L89.14565403248781 146.6233019853711 L89.14565403248781 155.53657262277966 L89.14565403248781 164.44984326018823 L89.14565403248781 173.36311389759678 L89.14565403248781 182.27638453500532 L89.14565403248781 191.1896551724139 L89.14565403248781 200.10292580982244 L89.14565403248781 209.01619644723098 L89.14565403248781 217.92946708463953 L89.14565403248781 226.8427377220481 L89.14565403248781 235.75600835945664 L89.14565403248781 244.6692789968652 L89.14565403248781 253.58254963427373 L89.14565403248781 262.4958202716823 L89.14565403248781 271.4090909090909 L102.96668566543167 12.92424242424238 L102.96668566543167 21.83751306165101 L102.96668566543167 30.750783699059582 L102.96668566543167 39.664054336468155 L102.96668566543167 48.57732497387673 L102.96668566543167 57.4905956112853 L102.96668566543167 66.40386624869387 L102.96668566543167 75.31713688610245 L102.96668566543167 84.23040752351108 L102.96668566543167 93.14367816091965 L102.96668566543167 102.05694879832822 L102.96668566543167 110.9702194357368 L102.96668566543167 119.88349007314537 L102.96668566543167 128.79676071055394 L102.96668566543167 137.7100313479625 L102.96668566543167 146.6233019853711 L102.96668566543167 155.53657262277966 L102.96668566543167 164.44984326018823 L102.96668566543167 173.36311389759678 L102.96668566543167 182.27638453500532 L102.96668566543167 191.1896551724139 L102.96668566543167 200.10292580982244 L102.96668566543167 209.01619644723098 L102.96668566543167 217.92946708463953 L102.96668566543167 226.8427377220481 L102.96668566543167 235.75600835945664 L102.96668566543167 244.6692789968652 L102.96668566543167 253.58254963427373 L102.96668566543167 262.4958202716823 L102.96668566543167 271.4090909090909 L116.78771729837547 12.92424242424238 L116.78771729837547 21.83751306165101 L116.78771729837547 30.750783699059582 L116.78771729837547 39.664054336468155 L116.78771729837547 48.57732497387673 L116.78771729837547 57.4905956112853 L116.78771729837547 66.40386624869387 L116.78771729837547 75.31713688610245 L116.78771729837547 84.23040752351108 L116.78771729837547 93.14367816091965 L116.78771729837547 102.05694879832822 L116.78771729837547 110.9702194357368 L116.78771729837547 119.88349007314537 L116.78771729837547 128.79676071055394 L116.78771729837547 137.7100313479625 L116.78771729837547 146.6233019853711 L116.78771729837547 155.53657262277966 L116.78771729837547 164.44984326018823 L116.78771729837547 173.36311389759678 L116.78771729837547 182.27638453500532 L116.78771729837547 191.1896551724139 L116.78771729837547 200.10292580982244 L116.78771729837547 209.01619644723098 L116.78771729837547 217.92946708463953 L116.78771729837547 226.8427377220481 L116.78771729837547 235.75600835945664 L116.78771729837547 244.6692789968652 L116.78771729837547 253.58254963427373 L116.78771729837547 262.4958202716823 L116.78771729837547 271.4090909090909 L130.60874893131933 12.92424242424238 L130.60874893131933 21.83751306165101 L130.60874893131933 30.750783699059582 L130.60874893131933 39.664054336468155 L130.60874893131933 48.57732497387673 L130.60874893131933 57.4905956112853 L130.60874893131933 66.40386624869387 L130.60874893131933 75.31713688610245 L130.60874893131933 84.23040752351108 L130.60874893131933 93.14367816091965 L130.60874893131933 102.05694879832822 L130.60874893131933 110.9702194357368 L130.60874893131933 119.88349007314537 L130.60874893131933 128.79676071055394 L130.60874893131933 137.7100313479625 L130.60874893131933 146.6233019853711 L130.60874893131933 155.53657262277966 L130.60874893131933 164.44984326018823 L130.60874893131933 173.36311389759678 L130.60874893131933 182.27638453500532 L130.60874893131933 191.1896551724139 L130.60874893131933 200.10292580982244 L130.60874893131933 209.01619644723098 L130.60874893131933 217.92946708463953 L130.60874893131933 226.8427377220481 L130.60874893131933 235.75600835945664 L130.60874893131933 244.6692789968652 L130.60874893131933 253.58254963427373 L130.60874893131933 262.4958202716823 L130.60874893131933 271.4090909090909 L144.42978056426318 12.92424242424238 L144.42978056426318 21.83751306165101 L144.42978056426318 30.750783699059582 L144.42978056426318 39.664054336468155 L144.42978056426318 48.57732497387673 L144.42978056426318 57.4905956112853 L144.42978056426318 66.40386624869387 L144.42978056426318 75.31713688610245 L144.42978056426318 84.23040752351108 L144.42978056426318 93.14367816091965 L144.42978056426318 102.05694879832822 L144.42978056426318 110.9702194357368 L144.42978056426318 119.88349007314537 L144.42978056426318 128.79676071055394 L144.42978056426318 137.7100313479625 L144.42978056426318 146.6233019853711 L144.42978056426318 155.53657262277966 L144.42978056426318 164.44984326018823 L144.42978056426318 173.36311389759678 L144.42978056426318 182.27638453500532 L144.42978056426318 191.1896551724139 L144.42978056426318 200.10292580982244 L144.42978056426318 209.01619644723098 L144.42978056426318 217.92946708463953 L144.42978056426318 226.8427377220481 L144.42978056426318 235.75600835945664 L144.42978056426318 244.6692789968652 L144.42978056426318 253.58254963427373 L144.42978056426318 262.4958202716823 L144.42978056426318 271.4090909090909 L158.25081219720704 12.92424242424238 L158.25081219720704 21.83751306165101 L158.25081219720704 30.750783699059582 L158.25081219720704 39.664054336468155 L158.25081219720704 48.57732497387673 L158.25081219720704 57.4905956112853 L158.25081219720704 66.40386624869387 L158.25081219720704 75.31713688610245 L158.25081219720704 84.23040752351108 L158.25081219720704 93.14367816091965 L158.25081219720704 102.05694879832822 L158.25081219720704 110.9702194357368 L158.25081219720704 119.88349007314537 L158.25081219720704 128.79676071055394 L158.25081219720704 137.7100313479625 L158.25081219720704 146.6233019853711 L158.25081219720704 155.53657262277966 L158.25081219720704 164.44984326018823 L158.25081219720704 173.36311389759678 L158.25081219720704 182.27638453500532 L158.25081219720704 191.1896551724139 L158.25081219720704 200.10292580982244 L158.25081219720704 209.01619644723098 L158.25081219720704 217.92946708463953 L158.25081219720704 226.8427377220481 L158.25081219720704 235.75600835945664 L158.25081219720704 244.6692789968652 L158.25081219720704 253.58254963427373 L158.25081219720704 262.4958202716823 L158.25081219720704 271.4090909090909 L172.07184383015084 12.92424242424238 L172.07184383015084 21.83751306165101 L172.07184383015084 30.750783699059582 L172.07184383015084 39.664054336468155 L172.07184383015084 48.57732497387673 L172.07184383015084 57.4905956112853 L172.07184383015084 66.40386624869387 L172.07184383015084 75.31713688610245 L172.07184383015084 84.23040752351108 L172.07184383015084 93.14367816091965 L172.07184383015084 102.05694879832822 L172.07184383015084 110.9702194357368 L172.07184383015084 119.88349007314537 L172.07184383015084 128.79676071055394 L172.07184383015084 137.7100313479625 L172.07184383015084 146.6233019853711 L172.07184383015084 155.53657262277966 L172.07184383015084 164.44984326018823 L172.07184383015084 173.36311389759678 L172.07184383015084 182.27638453500532 L172.07184383015084 191.1896551724139 L172.07184383015084 200.10292580982244 L172.07184383015084 209.01619644723098 L172.07184383015084 217.92946708463953 L172.07184383015084 226.8427377220481 L172.07184383015084 235.75600835945664 L172.07184383015084 244.6692789968652 L172.07184383015084 253.58254963427373 L172.07184383015084 262.4958202716823 L172.07184383015084 271.4090909090909 L185.8928754630947 12.92424242424238 L185.8928754630947 21.83751306165101 L185.8928754630947 30.750783699059582 L185.8928754630947 39.664054336468155 L185.8928754630947 48.57732497387673 L185.8928754630947 57.4905956112853 L185.8928754630947 66.40386624869387 L185.8928754630947 75.31713688610245 L185.8928754630947 84.23040752351108 L185.8928754630947 93.14367816091965 L185.8928754630947 102.05694879832822 L185.8928754630947 110.9702194357368 L185.8928754630947 119.88349007314537 L185.8928754630947 128.79676071055394 L185.8928754630947 137.7100313479625 L185.8928754630947 146.6233019853711 L185.8928754630947 155.53657262277966 L185.8928754630947 164.44984326018823 L185.8928754630947 173.36311389759678 L185.8928754630947 182.27638453500532 L185.8928754630947 191.1896551724139 L185.8928754630947 200.10292580982244 L185.8928754630947 209.01619644723098 L185.8928754630947 217.92946708463953 L185.8928754630947 226.8427377220481 L185.8928754630947 235.75600835945664 L185.8928754630947 244.6692789968652 L185.8928754630947 253.58254963427373 L185.8928754630947 262.4958202716823 L185.8928754630947 271.4090909090909 L199.71390709603855 12.92424242424238 L199.71390709603855 21.83751306165101 L199.71390709603855 30.750783699059582 L199.71390709603855 39.664054336468155 L199.71390709603855 48.57732497387673 L199.71390709603855 57.4905956112853 L199.71390709603855 66.40386624869387 L199.71390709603855 75.31713688610245 L199.71390709603855 84.23040752351108 L199.71390709603855 93.14367816091965 L199.71390709603855 102.05694879832822 L199.71390709603855 110.9702194357368 L199.71390709603855 119.88349007314537 L199.71390709603855 128.79676071055394 L199.71390709603855 137.7100313479625 L199.71390709603855 146.6233019853711 L199.71390709603855 155.53657262277966 L199.71390709603855 164.44984326018823 L199.71390709603855 173.36311389759678 L199.71390709603855 182.27638453500532 L199.71390709603855 191.1896551724139 L199.71390709603855 200.10292580982244 L199.71390709603855 209.01619644723098 L199.71390709603855 217.92946708463953 L199.71390709603855 226.8427377220481 L199.71390709603855 235.75600835945664 L199.71390709603855 244.6692789968652 L199.71390709603855 253.58254963427373 L199.71390709603855 262.4958202716823 L199.71390709603855 271.4090909090909 L213.53493872898235 12.92424242424238 L213.53493872898235 21.83751306165101 L213.53493872898235 30.750783699059582 L213.53493872898235 39.664054336468155 L213.53493872898235 48.57732497387673 L213.53493872898235 57.4905956112853 L213.53493872898235 66.40386624869387 L213.53493872898235 75.31713688610245 L213.53493872898235 84.23040752351108 L213.53493872898235 93.14367816091965 L213.53493872898235 102.05694879832822 L213.53493872898235 110.9702194357368 L213.53493872898235 119.88349007314537 L213.53493872898235 128.79676071055394 L213.53493872898235 137.7100313479625 L213.53493872898235 146.6233019853711 L213.53493872898235 155.53657262277966 L213.53493872898235 164.44984326018823 L213.53493872898235 173.36311389759678 L213.53493872898235 182.27638453500532 L213.53493872898235 191.1896551724139 L213.53493872898235 200.10292580982244 L213.53493872898235 209.01619644723098 L213.53493872898235 217.92946708463953 L213.53493872898235 226.8427377220481 L213.53493872898235 235.75600835945664 L213.53493872898235 244.6692789968652 L213.53493872898235 253.58254963427373 L213.53493872898235 262.4958202716823 L213.53493872898235 271.4090909090909 L227.35597036192627 12.92424242424238 L227.35597036192627 21.83751306165101 L227.35597036192627 30.750783699059582 L227.35597036192627 39.664054336468155 L227.35597036192627 48.57732497387673 L227.35597036192627 57.4905956112853 L227.35597036192627 66.40386624869387 L227.35597036192627 75.31713688610245 L227.35597036192627 84.23040752351108 L227.35597036192627 93.14367816091965 L227.35597036192627 102.05694879832822 L227.35597036192627 110.9702194357368 L227.35597036192627 119.88349007314537 L227.35597036192627 128.79676071055394 L227.35597036192627 137.7100313479625 L227.35597036192627 146.6233019853711 L227.35597036192627 155.53657262277966 L227.35597036192627 164.44984326018823 L227.35597036192627 173.36311389759678 L227.35597036192627 182.27638453500532 L227.35597036192627 191.1896551724139 L227.35597036192627 200.10292580982244 L227.35597036192627 209.01619644723098 L227.35597036192627 217.92946708463953 L227.35597036192627 226.8427377220481 L227.35597036192627 235.75600835945664 L227.35597036192627 244.6692789968652 L227.35597036192627 253.58254963427373 L227.35597036192627 262.4958202716823 L227.35597036192627 271.4090909090909 L241.17700199487012 12.92424242424238 L241.17700199487012 21.83751306165101 L241.17700199487012 30.750783699059582 L241.17700199487012 39.664054336468155 L241.17700199487012 48.57732497387673 L241.17700199487012 57.4905956112853 L241.17700199487012 66.40386624869387 L241.17700199487012 75.31713688610245 L241.17700199487012 84.23040752351108 L241.17700199487012 93.14367816091965 L241.17700199487012 102.05694879832822 L241.17700199487012 110.9702194357368 L241.17700199487012 119.88349007314537 L241.17700199487012 128.79676071055394 L241.17700199487012 137.7100313479625 L241.17700199487012 146.6233019853711 L241.17700199487012 155.53657262277966 L241.17700199487012 164.44984326018823 L241.17700199487012 173.36311389759678 L241.17700199487012 182.27638453500532 L241.17700199487012 191.1896551724139 L241.17700199487012 200.10292580982244 L241.17700199487012 209.01619644723098 L241.17700199487012 217.92946708463953 L241.17700199487012 226.8427377220481 L241.17700199487012 235.75600835945664 L241.17700199487012 244.6692789968652 L241.17700199487012 253.58254963427373 L241.17700199487012 262.4958202716823 L241.17700199487012 271.4090909090909 L254.99803362781404 12.92424242424238 L254.99803362781404 21.83751306165101 L254.99803362781404 30.750783699059582 L254.99803362781404 39.664054336468155 L254.99803362781404 48.57732497387673 L254.99803362781404 57.4905956112853 L254.99803362781404 66.40386624869387 L254.99803362781404 75.31713688610245 L254.99803362781404 84.23040752351108 L254.99803362781404 93.14367816091965 L254.99803362781404 102.05694879832822 L254.99803362781404 110.9702194357368 L254.99803362781404 119.88349007314537 L254.99803362781404 128.79676071055394 L254.99803362781404 137.7100313479625 L254.99803362781404 146.6233019853711 L254.99803362781404 155.53657262277966 L254.99803362781404 164.44984326018823 L254.99803362781404 173.36311389759678 L254.99803362781404 182.27638453500532 L254.99803362781404 191.1896551724139 L254.99803362781404 200.10292580982244 L254.99803362781404 209.01619644723098 L254.99803362781404 217.92946708463953 L254.99803362781404 226.8427377220481 L254.99803362781404 235.75600835945664 L254.99803362781404 244.6692789968652 L254.99803362781404 253.58254963427373 L254.99803362781404 262.4958202716823 L254.99803362781404 271.4090909090909 L268.8190652607579 12.92424242424238 L268.8190652607579 21.83751306165101 L268.8190652607579 30.750783699059582 L268.8190652607579 39.664054336468155 L268.8190652607579 48.57732497387673 L268.8190652607579 57.4905956112853 L268.8190652607579 66.40386624869387 L268.8190652607579 75.31713688610245 L268.8190652607579 84.23040752351108 L268.8190652607579 93.14367816091965 L268.8190652607579 102.05694879832822 L268.8190652607579 110.9702194357368 L268.8190652607579 119.88349007314537 L268.8190652607579 128.79676071055394 L268.8190652607579 137.7100313479625 L268.8190652607579 146.6233019853711 L268.8190652607579 155.53657262277966 L268.8190652607579 164.44984326018823 L268.8190652607579 173.36311389759678 L268.8190652607579 182.27638453500532 L268.8190652607579 191.1896551724139 L268.8190652607579 200.10292580982244 L268.8190652607579 209.01619644723098 L268.8190652607579 217.92946708463953 L268.8190652607579 226.8427377220481 L268.8190652607579 235.75600835945664 L268.8190652607579 244.6692789968652 L268.8190652607579 253.58254963427373 L268.8190652607579 262.4958202716823 L268.8190652607579 271.4090909090909 L282.6400968937018 12.92424242424238 L282.6400968937018 21.83751306165101 L282.6400968937018 30.750783699059582 L282.6400968937018 39.664054336468155 L282.6400968937018 48.57732497387673 L282.6400968937018 57.4905956112853 L282.6400968937018 66.40386624869387 L282.6400968937018 75.31713688610245 L282.6400968937018 84.23040752351108 L282.6400968937018 93.14367816091965 L282.6400968937018 102.05694879832822 L282.6400968937018 110.9702194357368 L282.6400968937018 119.88349007314537 L282.6400968937018 128.79676071055394 L282.6400968937018 137.7100313479625 L282.6400968937018 146.6233019853711 L282.6400968937018 155.53657262277966 L282.6400968937018 164.44984326018823 L282.6400968937018 173.36311389759678 L282.6400968937018 182.27638453500532 L282.6400968937018 191.1896551724139 L282.6400968937018 200.10292580982244 L282.6400968937018 209.01619644723098 L282.6400968937018 217.92946708463953 L282.6400968937018 226.8427377220481 L282.6400968937018 235.75600835945664 L282.6400968937018 244.6692789968652 L282.6400968937018 253.58254963427373 L282.6400968937018 262.4958202716823 L282.6400968937018 271.4090909090909 L296.46112852664567 12.92424242424238 L296.46112852664567 21.83751306165101 L296.46112852664567 30.750783699059582 L296.46112852664567 39.664054336468155 L296.46112852664567 48.57732497387673 L296.46112852664567 57.4905956112853 L296.46112852664567 66.40386624869387 L296.46112852664567 75.31713688610245 L296.46112852664567 84.23040752351108 L296.46112852664567 93.14367816091965 L296.46112852664567 102.05694879832822 L296.46112852664567 110.9702194357368 L296.46112852664567 119.88349007314537 L296.46112852664567 128.79676071055394 L296.46112852664567 137.7100313479625 L296.46112852664567 146.6233019853711 L296.46112852664567 155.53657262277966 L296.46112852664567 164.44984326018823 L296.46112852664567 173.36311389759678 L296.46112852664567 182.27638453500532 L296.46112852664567 191.1896551724139 L296.46112852664567 200.10292580982244 L296.46112852664567 209.01619644723098 L296.46112852664567 217.92946708463953 L296.46112852664567 226.8427377220481 L296.46112852664567 235.75600835945664 L296.46112852664567 244.6692789968652 L296.46112852664567 253.58254963427373 L296.46112852664567 262.4958202716823 L296.46112852664567 271.4090909090909 L310.2821601595896 12.92424242424238 L310.2821601595896 21.83751306165101 L310.2821601595896 30.750783699059582 L310.2821601595896 39.664054336468155 L310.2821601595896 48.57732497387673 L310.2821601595896 57.4905956112853 L310.2821601595896 66.40386624869387 L310.2821601595896 75.31713688610245 L310.2821601595896 84.23040752351108 L310.2821601595896 93.14367816091965 L310.2821601595896 102.05694879832822 L310.2821601595896 110.9702194357368 L310.2821601595896 119.88349007314537 L310.2821601595896 128.79676071055394 L310.2821601595896 137.7100313479625 L310.2821601595896 146.6233019853711 L310.2821601595896 155.53657262277966 L310.2821601595896 164.44984326018823 L310.2821601595896 173.36311389759678 L310.2821601595896 182.27638453500532 L310.2821601595896 191.1896551724139 L310.2821601595896 200.10292580982244 L310.2821601595896 209.01619644723098 L310.2821601595896 217.92946708463953 L310.2821601595896 226.8427377220481 L310.2821601595896 235.75600835945664 L310.2821601595896 244.6692789968652 L310.2821601595896 253.58254963427373 L310.2821601595896 262.4958202716823 L310.2821601595896 271.4090909090909 L324.10319179253344 12.92424242424238 L324.10319179253344 21.83751306165101 L324.10319179253344 30.750783699059582 L324.10319179253344 39.664054336468155 L324.10319179253344 48.57732497387673 L324.10319179253344 57.4905956112853 L324.10319179253344 66.40386624869387 L324.10319179253344 75.31713688610245 L324.10319179253344 84.23040752351108 L324.10319179253344 93.14367816091965 L324.10319179253344 102.05694879832822 L324.10319179253344 110.9702194357368 L324.10319179253344 119.88349007314537 L324.10319179253344 128.79676071055394 L324.10319179253344 137.7100313479625 L324.10319179253344 146.6233019853711 L324.10319179253344 155.53657262277966 L324.10319179253344 164.44984326018823 L324.10319179253344 173.36311389759678 L324.10319179253344 182.27638453500532 L324.10319179253344 191.1896551724139 L324.10319179253344 200.10292580982244 L324.10319179253344 209.01619644723098 L324.10319179253344 217.92946708463953 L324.10319179253344 226.8427377220481 L324.10319179253344 235.75600835945664 L324.10319179253344 244.6692789968652 L324.10319179253344 253.58254963427373 L324.10319179253344 262.4958202716823 L324.10319179253344 271.4090909090909 L337.9242234254773 12.92424242424238 L337.9242234254773 21.83751306165101 L337.9242234254773 30.750783699059582 L337.9242234254773 39.664054336468155 L337.9242234254773 48.57732497387673 L337.9242234254773 57.4905956112853 L337.9242234254773 66.40386624869387 L337.9242234254773 75.31713688610245 L337.9242234254773 84.23040752351108 L337.9242234254773 93.14367816091965 L337.9242234254773 102.05694879832822 L337.9242234254773 110.9702194357368 L337.9242234254773 119.88349007314537 L337.9242234254773 128.79676071055394 L337.9242234254773 137.7100313479625 L337.9242234254773 146.6233019853711 L337.9242234254773 155.53657262277966 L337.9242234254773 164.44984326018823 L337.9242234254773 173.36311389759678 L337.9242234254773 182.27638453500532 L337.9242234254773 191.1896551724139 L337.9242234254773 200.10292580982244 L337.9242234254773 209.01619644723098 L337.9242234254773 217.92946708463953 L337.9242234254773 226.8427377220481 L337.9242234254773 235.75600835945664 L337.9242234254773 244.6692789968652 L337.9242234254773 253.58254963427373 L337.9242234254773 262.4958202716823 L337.9242234254773 271.4090909090909 L351.7452550584212 12.92424242424238 L351.7452550584212 21.83751306165101 L351.7452550584212 30.750783699059582 L351.7452550584212 39.664054336468155 L351.7452550584212 48.57732497387673 L351.7452550584212 57.4905956112853 L351.7452550584212 66.40386624869387 L351.7452550584212 75.31713688610245 L351.7452550584212 84.23040752351108 L351.7452550584212 93.14367816091965 L351.7452550584212 102.05694879832822 L351.7452550584212 110.9702194357368 L351.7452550584212 119.88349007314537 L351.7452550584212 128.79676071055394 L351.7452550584212 137.7100313479625 L351.7452550584212 146.6233019853711 L351.7452550584212 155.53657262277966 L351.7452550584212 164.44984326018823 L351.7452550584212 173.36311389759678 L351.7452550584212 182.27638453500532 L351.7452550584212 191.1896551724139 L351.7452550584212 200.10292580982244 L351.7452550584212 209.01619644723098 L351.7452550584212 217.92946708463953 L351.7452550584212 226.8427377220481 L351.7452550584212 235.75600835945664 L351.7452550584212 244.6692789968652 L351.7452550584212 253.58254963427373 L351.7452550584212 262.4958202716823 L351.7452550584212 271.4090909090909 L365.5662866913651 12.92424242424238 L365.5662866913651 21.83751306165101 L365.5662866913651 30.750783699059582 L365.5662866913651 39.664054336468155 L365.5662866913651 48.57732497387673 L365.5662866913651 57.4905956112853 L365.5662866913651 66.40386624869387 L365.5662866913651 75.31713688610245 L365.5662866913651 84.23040752351108 L365.5662866913651 93.14367816091965 L365.5662866913651 102.05694879832822 L365.5662866913651 110.9702194357368 L365.5662866913651 119.88349007314537 L365.5662866913651 128.79676071055394 L365.5662866913651 137.7100313479625 L365.5662866913651 146.6233019853711 L365.5662866913651 155.53657262277966 L365.5662866913651 164.44984326018823 L365.5662866913651 173.36311389759678 L365.5662866913651 182.27638453500532 L365.5662866913651 191.1896551724139 L365.5662866913651 200.10292580982244 L365.5662866913651 209.01619644723098 L365.5662866913651 217.92946708463953 L365.5662866913651 226.8427377220481 L365.5662866913651 235.75600835945664 L365.5662866913651 244.6692789968652 L365.5662866913651 253.58254963427373 L365.5662866913651 262.4958202716823 L365.5662866913651 271.4090909090909 L379.38731832430904 12.92424242424238 L379.38731832430904 21.83751306165101 L379.38731832430904 30.750783699059582 L379.38731832430904 39.664054336468155 L379.38731832430904 48.57732497387673 L379.38731832430904 57.4905956112853 L379.38731832430904 66.40386624869387 L379.38731832430904 75.31713688610245 L379.38731832430904 84.23040752351108 L379.38731832430904 93.14367816091965 L379.38731832430904 102.05694879832822 L379.38731832430904 110.9702194357368 L379.38731832430904 119.88349007314537 L379.38731832430904 128.79676071055394 L379.38731832430904 137.7100313479625 L379.38731832430904 146.6233019853711 L379.38731832430904 155.53657262277966 L379.38731832430904 164.44984326018823 L379.38731832430904 173.36311389759678 L379.38731832430904 182.27638453500532 L379.38731832430904 191.1896551724139 L379.38731832430904 200.10292580982244 L379.38731832430904 209.01619644723098 L379.38731832430904 217.92946708463953 L379.38731832430904 226.8427377220481 L379.38731832430904 235.75600835945664 L379.38731832430904 244.6692789968652 L379.38731832430904 253.58254963427373 L379.38731832430904 262.4958202716823 L379.38731832430904 271.4090909090909 L393.20834995725284 12.92424242424238 L393.20834995725284 21.83751306165101 L393.20834995725284 30.750783699059582 L393.20834995725284 39.664054336468155 L393.20834995725284 48.57732497387673 L393.20834995725284 57.4905956112853 L393.20834995725284 66.40386624869387 L393.20834995725284 75.31713688610245 L393.20834995725284 84.23040752351108 L393.20834995725284 93.14367816091965 L393.20834995725284 102.05694879832822 L393.20834995725284 110.9702194357368 L393.20834995725284 119.88349007314537 L393.20834995725284 128.79676071055394 L393.20834995725284 137.7100313479625 L393.20834995725284 146.6233019853711 L393.20834995725284 155.53657262277966 L393.20834995725284 164.44984326018823 L393.20834995725284 173.36311389759678 L393.20834995725284 182.27638453500532 L393.20834995725284 191.1896551724139 L393.20834995725284 200.10292580982244 L393.20834995725284 209.01619644723098 L393.20834995725284 217.92946708463953 L393.20834995725284 226.8427377220481 L393.20834995725284 235.75600835945664 L393.20834995725284 244.6692789968652 L393.20834995725284 253.58254963427373 L393.20834995725284 262.4958202716823 L393.20834995725284 271.4090909090909 L407.02938159019675 12.92424242424238 L407.02938159019675 21.83751306165101 L407.02938159019675 30.750783699059582 L407.02938159019675 39.664054336468155 L407.02938159019675 48.57732497387673 L407.02938159019675 57.4905956112853 L407.02938159019675 66.40386624869387 L407.02938159019675 75.31713688610245 L407.02938159019675 84.23040752351108 L407.02938159019675 93.14367816091965 L407.02938159019675 102.05694879832822 L407.02938159019675 110.9702194357368 L407.02938159019675 119.88349007314537 L407.02938159019675 128.79676071055394 L407.02938159019675 137.7100313479625 L407.02938159019675 146.6233019853711 L407.02938159019675 155.53657262277966 L407.02938159019675 164.44984326018823 L407.02938159019675 173.36311389759678 L407.02938159019675 182.27638453500532 L407.02938159019675 191.1896551724139 L407.02938159019675 200.10292580982244 L407.02938159019675 209.01619644723098 L407.02938159019675 217.92946708463953 L407.02938159019675 226.8427377220481 L407.02938159019675 235.75600835945664 L407.02938159019675 244.6692789968652 L407.02938159019675 253.58254963427373 L407.02938159019675 262.4958202716823 L407.02938159019675 271.4090909090909 L420.85041322314066 12.92424242424238 L420.85041322314066 21.83751306165101 L420.85041322314066 30.750783699059582 L420.85041322314066 39.664054336468155 L420.85041322314066 48.57732497387673 L420.85041322314066 57.4905956112853 L420.85041322314066 66.40386624869387 L420.85041322314066 75.31713688610245 L420.85041322314066 84.23040752351108 L420.85041322314066 93.14367816091965 L420.85041322314066 102.05694879832822 L420.85041322314066 110.9702194357368 L420.85041322314066 119.88349007314537 L420.85041322314066 128.79676071055394 L420.85041322314066 137.7100313479625 L420.85041322314066 146.6233019853711 L420.85041322314066 155.53657262277966 L420.85041322314066 164.44984326018823 L420.85041322314066 173.36311389759678 L420.85041322314066 182.27638453500532 L420.85041322314066 191.1896551724139 L420.85041322314066 200.10292580982244 L420.85041322314066 209.01619644723098 L420.85041322314066 217.92946708463953 L420.85041322314066 226.8427377220481 L420.85041322314066 235.75600835945664 L420.85041322314066 244.6692789968652 L420.85041322314066 253.58254963427373 L420.85041322314066 262.4958202716823 L420.85041322314066 271.4090909090909 " fill="none" stroke-width="1.0" stroke="rgb(17,142,216)" stroke-opacity="1.0">
          </path>
        </g>
      </g>
    </g>
    <g class="plt-axis">
      <g transform="translate(4.0 152.16666666666666 ) rotate(-90.0 ) " class="plt-axis-title">
        <text text-anchor="middle" dy="0.7em">
        y
        </text>
      </g>
    </g>
    <g class="plt-axis">
      <g transform="translate(269.5454545454546 329.3333333333333 ) " class="plt-axis-title">
        <text text-anchor="middle">
        x
        </text>
      </g>
    </g>
  </g>
</svg>