<svg xmlns="http://www.w3.org/2000/svg" class="plt-container" width="500.0" height="333.3333333333333">
  <style type="text/css">
  .plt-container {
	font-family: "Lucida Grande", sans-serif;
	cursor: crosshair;
	user-select: none;
	-webkit-user-select: none;
	-moz-user-select: none;
	-ms-user-select: none;
}
.plt-backdrop {
   fill: white;
}
.plt-transparent .plt-backdrop {
   visibility: hidden;
}
text {
	font-size: 12px;
	fill: #3d3d3d;
	
	text-rendering: optimizeLegibility;
}
.plt-data-tooltip text {
	font-size: 12px;
}
.plt-axis-tooltip text {
	font-size: 10px;
}
.plt-axis line {
	shape-rendering: crispedges;
}
.plt-plot-title {

  font-size: 16.0px;
  font-weight: bold;
}
.plt-axis .tick text {

  font-size: 10.0px;
}
.plt-axis.small-tick-font .tick text {

  font-size: 8.0px;
}
.plt-axis-title text {

  font-size: 12.0px;
}
.plt_legend .legend-title text {

  font-size: 12.0px;
  font-weight: bold;
}
.plt_legend text {

  font-size: 10.0px;
}

  </style>
  <rect class="plt-backdrop" width="100%" height="100%">
  </rect>
  <g class="plt-plot">
    <g transform="translate(20.0 10.0 ) ">
      <g transform="translate(15.7 284.3333333333333 ) " class="plt-axis">
        <g class="tick" transform="translate(20.65 0.0 ) ">
          <line stroke-width="1.0" stroke="rgb(0,0,0)" stroke-opacity="1.0" x2="0.0" y2="6.0">
          </line>
          <g transform="translate(0.0 9.0 ) ">
            <text style="fill:#000000;" text-anchor="middle" dy="0.7em">
            0
            </text>
          </g>
        </g>
        <g class="tick" transform="translate(103.25 0.0 ) ">
          <line stroke-width="1.0" stroke="rgb(0,0,0)" stroke-opacity="1.0" x2="0.0" y2="6.0">
          </line>
          <g transform="translate(0.0 9.0 ) ">
            <text style="fill:#000000;" text-anchor="middle" dy="0.7em">
            1
            </text>
          </g>
        </g>
        <g class="tick" transform="translate(185.85000000000002 0.0 ) ">
          <line stroke-width="1.0" stroke="rgb(0,0,0)" stroke-opacity="1.0" x2="0.0" y2="6.0">
          </line>
          <g transform="translate(0.0 9.0 ) ">
            <text style="fill:#000000;" text-anchor="middle" dy="0.7em">
            2
            </text>
          </g>
        </g>
        <g class="tick" transform="translate(268.45 0.0 ) ">
          <line stroke-width="1.0" stroke="rgb(0,0,0)" stroke-opacity="1.0" x2="0.0" y2="6.0">
          </line>
          <g transform="translate(0.0 9.0 ) ">
            <text style="fill:#000000;" text-anchor="middle" dy="0.7em">
            3
            </text>
          </g>
        </g>
        <g class="tick" transform="translate(351.05 0.0 ) ">
          <line stroke-width="1.0" stroke="rgb(0,0,0)" stroke-opacity="1.0" x2="0.0" y2="6.0">
          </line>
          <g transform="translate(0.0 9.0 ) ">
            <text style="fill:#000000;" text-anchor="middle" dy="0.7em">
            4
            </text>
          </g>
        </g>
        <g class="tick" transform="translate(433.65000000000003 0.0 ) ">
          <line stroke-width="1.0" stroke="rgb(0,0,0)" stroke-opacity="1.0" x2="0.0" y2="6.0">
          </line>
          <g transform="translate(0.0 9.0 ) ">
            <text style="fill:#000000;" text-anchor="middle" dy="0.7em">
            5
            </text>
          </g>
        </g>
        <line x1="0.0" y1="0.0" x2="454.3" y2="0.0" stroke-width="1.0" stroke="rgb(0,0,0)" stroke-opacity="1.0">
        </line>
      </g>
      <g transform="translate(15.7 0.0 ) " class="plt-axis">
        <g class="tick" transform="translate(0.0 271.4090909090909 ) ">
          <line stroke-width="1.0" stroke="rgb(0,0,0)" stroke-opacity="1.0" x2="-6.0" y2="0.0">
          </line>
          <g transform="translate(-9.0 0.0 ) ">
            <text style="fill:#000000;" text-anchor="end" dy="0.35em">
            0
            </text>
          </g>
        </g>
        <g class="tick" transform="translate(0.0 219.84305415988788 ) ">
          <line stroke-width="1.0" stroke="rgb(0,0,0)" stroke-opacity="1.0" x2="-6.0" y2="0.0">
          </line>
          <g transform="translate(-9.0 0.0 ) ">
            <text style="fill:#000000;" text-anchor="end" dy="0.35em">
            1
            </text>
          </g>
        </g>
        <g class="tick" transform="translate(0.0 168.2770174106849 ) ">
          <line stroke-width="1.0" stroke="rgb(0,0,0)" stroke-opacity="1.0" x2="-6.0" y2="0.0">
          </line>
          <g transform="translate(-9.0 0.0 ) ">
            <text style="fill:#000000;" text-anchor="end" dy="0.35em">
            2
            </text>
          </g>
        </g>
        <g class="tick" transform="translate(0.0 116.7109806614819 ) ">
          <line stroke-width="1.0" stroke="rgb(0,0,0)" stroke-opacity="1.0" x2="-6.0" y2="0.0">
          </line>
          <g transform="translate(-9.0 0.0 ) ">
            <text style="fill:#000000;" text-anchor="end" dy="0.35em">
            3
            </text>
          </g>
        </g>
        <g class="tick" transform="translate(0.0 65.1449439122789 ) ">
          <line stroke-width="1.0" stroke="rgb(0,0,0)" stroke-opacity="1.0" x2="-6.0" y2="0.0">
          </line>
          <g transform="translate(-9.0 0.0 ) ">
            <text style="fill:#000000;" text-anchor="end" dy="0.35em">
            4
            </text>
          </g>
        </g>
        <g class="tick" transform="translate(0.0 13.578907163075883 ) ">
          <line stroke-width="1.0" stroke="rgb(0,0,0)" stroke-opacity="1.0" x2="-6.0" y2="0.0">
          </line>
          <g transform="translate(-9.0 0.0 ) ">
            <text style="fill:#000000;" text-anchor="end" dy="0.35em">
            5
            </text>
          </g>
        </g>
        <line x1="0.0" y1="0.0" x2="0.0" y2="284.3333333333333" stroke-width="1.0" stroke="rgb(0,0,0)" stroke-opacity="1.0">
        </line>
      </g>
      <g transform="translate(15.7 0.0 ) " clip-path="url(#Qv024s)" clip-bounds-jfx="[rect (0.0, 0.0), (454.3, 284.3333333333333)]">
        <defs>
          <clipPath id="Qv024s">
            <rect x="0.0" y="0.0" width="454.3" height="284.3333333333333">
            </rect>
          </clipPath>
        </defs>
        <g>
          <path d="M20.65 271.4090909090909 L20.65 271.4090909090909 L24.82171717171717 261.4921991686522 L28.993434343434345 251.5876082141817 L33.165151515151514 241.70761883164752 L37.336868686868684 231.86453180701784 L41.50858585858586 222.07064792626085 L45.68030303030304 212.3382679753447 L49.8520202020202 202.67969274023756 L54.023737373737376 193.1072230069076 L58.195454545454545 183.633159561323 L62.36717171717172 174.26980318945186 L66.53888888888889 165.02945467726244 L70.71060606060607 155.92441481072288 L74.88232323232324 146.96698437580133 L79.0540404040404 138.16946415846598 L83.22575757575758 129.54415494468495 L87.39747474747475 121.10335752042647 L91.56919191919192 112.85937267165869 L95.7409090909091 104.82450118434977 L99.91262626262628 97.01104384446785 L104.08434343434345 89.43130932065537 L108.25606060606063 82.09927740848764 L112.4277777777778 75.03265640844234 L116.59949494949498 68.24965911214687 L120.77121212121216 61.768498311228456 L124.94292929292936 55.60738679731429 L129.11464646464654 49.78453736203184 L133.28636363636372 44.31816279700831 L137.4580808080809 39.22647589387097 L141.62979797979807 34.52768944424716 L145.80151515151525 30.240016239764117 L149.97323232323245 26.381669072049107 L154.14494949494963 22.970860732729477 L158.3166666666668 20.02580401343255 L162.48838383838398 17.5647117057855 L166.66010101010116 15.605796601415648 L170.83181818181833 14.167271491950373 L175.0035353535355 13.267349169016825 L179.17525252525272 12.924242424242436 L183.3469696969699 13.156164049254357 L187.51868686868704 13.980862012181262 L191.69040404040422 15.39801426763961 L195.86212121212142 17.383825183561243 L200.0338383838386 19.91293034857003 L204.20555555555578 22.95996535128961 L208.37727272727295 26.499565780343886 L212.54898989899013 30.506367224356637 L216.7207070707073 34.95500527195159 L220.89242424242448 39.82011551175245 L225.0641414141417 45.076333532383074 L229.23585858585886 50.69829492246731 L233.40757575757604 56.66063527062886 L237.57929292929322 62.937990165491385 L241.7510101010104 69.5049951956789 L245.92272727272757 76.33628594981502 L250.09444444444475 83.40649801652356 L254.26616161616195 90.69026698442832 L258.43787878787913 98.16222844215301 L262.6095959595963 105.79701797832146 L266.7813131313135 113.5692711815575 L270.95303030303063 121.4525114205814 L275.12474747474783 129.4036199588932 L279.296464646465 137.36666693443917 L283.4681818181822 145.2853929385277 L287.63989898989934 153.10353856246726 L291.81161616161654 160.76484439756615 L295.98333333333375 168.21305103513276 L300.1550505050509 175.3918990664755 L304.3267676767681 182.24512908290268 L308.49848484848525 188.71648167572275 L312.67020202020245 194.74969743624405 L316.8419191919196 200.28851695577492 L321.0136363636368 205.27668082562383 L325.185353535354 209.6579296370991 L329.35707070707116 213.3760039815091 L333.52878787878836 216.37464445016224 L337.7005050505055 218.59759163436686 L341.8722222222227 219.9885861254314 L346.04393939393987 220.49136851466415 L350.21565656565707 220.04967939337354 L354.3873737373742 218.61642156310063 L358.55909090909137 216.2122122853872 L362.7308080808085 212.88801864317082 L366.90252525252566 208.69495087892383 L371.0742424242428 203.6841192351186 L375.2459595959599 197.90663395422757 L379.41767676767705 191.41360527872314 L383.5893939393942 184.2561434510776 L387.76111111111135 176.48535871376345 L391.9328282828285 168.152361309253 L396.10454545454564 159.30826148001864 L400.2762626262628 150.00416946853287 L404.44797979797994 140.29119551726794 L408.6196969696971 130.2204498686963 L412.79141414141424 119.84304276529033 L416.9631313131314 109.21008444952241 L421.13484848484853 98.37268516386493 L425.3065656565657 87.3819551507903 L429.47828282828283 76.28900465277093 L433.6499999999999 65.14494391227907 " fill="none" stroke-width="1.0" stroke="rgb(17,142,216)" stroke-opacity="1.0">
          </path>
        </g>
      </g>
    </g>
    <g class="plt-axis">
      <g transform="translate(4.0 152.16666666666666 ) rotate(-90.0 ) " class="plt-axis-title">
        <text text-anchor="middle" dy="0.7em">
        y
        </text>
      </g>
    </g>
    <g class="plt-axis">
      <g transform="translate(262.85 329.3333333333333 ) " class="plt-axis-title">
        <text text-anchor="middle">
        x
        </text>
      </g>
    </g>
  </g>
</svg>