<svg xmlns="http://www.w3.org/2000/svg" class="plt-container" width="500.0" height="333.3333333333333">
  <style type="text/css">
  .plt-container {
	font-family: "Lucida Grande", sans-serif;
	cursor: crosshair;
	user-select: none;
	-webkit-user-select: none;
	-moz-user-select: none;
	-ms-user-select: none;
}
.plt-backdrop {
   fill: white;
}
.plt-transparent .plt-backdrop {
   visibility: hidden;
}
text {
	font-size: 12px;
	fill: #3d3d3d;
	
	text-rendering: optimizeLegibility;
}
.plt-data-tooltip text {
	font-size: 12px;
}
.plt-axis-tooltip text {
	font-size: 10px;
}
.plt-axis line {
	shape-rendering: crispedges;
}
.plt-plot-title {

  font-size: 16.0px;
  font-weight: bold;
}
.plt-axis .tick text {

  font-size: 10.0px;
}
.plt-axis.small-tick-font .tick text {

  font-size: 8.0px;
}
.plt-axis-title text {

  font-size: 12.0px;
}
.plt_legend .legend-title text {

  font-size: 12.0px;
  font-weight: bold;
}
.plt_legend text {

  font-size: 10.0px;
}

  </style>
  <rect class="plt-backdrop" width="100%" height="100%">
  </rect>
  <g class="plt-plot">
    <g transform="translate(20.0 10.0 ) ">
      <g transform="translate(35.8 284.3333333333333 ) " class="plt-axis">
        <g class="tick" transform="translate(19.736363636363638 0.0 ) ">
          <line stroke-width="1.0" stroke="rgb(0,0,0)" stroke-opacity="1.0" x2="0.0" y2="6.0">
          </line>
          <g transform="translate(0.0 9.0 ) ">
            <text style="fill:#000000;" text-anchor="middle" dy="0.7em">
            0
            </text>
          </g>
        </g>
        <g class="tick" transform="translate(80.4636363636363 0.0 ) ">
          <line stroke-width="1.0" stroke="rgb(0,0,0)" stroke-opacity="1.0" x2="0.0" y2="6.0">
          </line>
          <g transform="translate(0.0 9.0 ) ">
            <text style="fill:#000000;" text-anchor="middle" dy="0.7em">
            1
            </text>
          </g>
        </g>
        <g class="tick" transform="translate(141.19090909090897 0.0 ) ">
          <line stroke-width="1.0" stroke="rgb(0,0,0)" stroke-opacity="1.0" x2="0.0" y2="6.0">
          </line>
          <g transform="translate(0.0 9.0 ) ">
            <text style="fill:#000000;" text-anchor="middle" dy="0.7em">
            2
            </text>
          </g>
        </g>
        <g class="tick" transform="translate(201.91818181818164 0.0 ) ">
          <line stroke-width="1.0" stroke="rgb(0,0,0)" stroke-opacity="1.0" x2="0.0" y2="6.0">
          </line>
          <g transform="translate(0.0 9.0 ) ">
            <text style="fill:#000000;" text-anchor="middle" dy="0.7em">
            3
            </text>
          </g>
        </g>
        <g class="tick" transform="translate(262.6454545454543 0.0 ) ">
          <line stroke-width="1.0" stroke="rgb(0,0,0)" stroke-opacity="1.0" x2="0.0" y2="6.0">
          </line>
          <g transform="translate(0.0 9.0 ) ">
            <text style="fill:#000000;" text-anchor="middle" dy="0.7em">
            4
            </text>
          </g>
        </g>
        <g class="tick" transform="translate(323.37272727272693 0.0 ) ">
          <line stroke-width="1.0" stroke="rgb(0,0,0)" stroke-opacity="1.0" x2="0.0" y2="6.0">
          </line>
          <g transform="translate(0.0 9.0 ) ">
            <text style="fill:#000000;" text-anchor="middle" dy="0.7em">
            5
            </text>
          </g>
        </g>
        <g class="tick" transform="translate(384.0999999999996 0.0 ) ">
          <line stroke-width="1.0" stroke="rgb(0,0,0)" stroke-opacity="1.0" x2="0.0" y2="6.0">
          </line>
          <g transform="translate(0.0 9.0 ) ">
            <text style="fill:#000000;" text-anchor="middle" dy="0.7em">
            6
            </text>
          </g>
        </g>
        <line x1="0.0" y1="0.0" x2="434.2" y2="0.0" stroke-width="1.0" stroke="rgb(0,0,0)" stroke-opacity="1.0">
        </line>
      </g>
      <g transform="translate(35.8 0.0 ) " class="plt-axis">
        <g class="tick" transform="translate(0.0 274.5987439982623 ) ">
          <line stroke-width="1.0" stroke="rgb(0,0,0)" stroke-opacity="1.0" x2="-6.0" y2="0.0">
          </line>
          <g transform="translate(-9.0 0.0 ) ">
            <text style="fill:#000000;" text-anchor="end" dy="0.35em">
            -1.0
            </text>
          </g>
        </g>
        <g class="tick" transform="translate(0.0 208.44209710422302 ) ">
          <line stroke-width="1.0" stroke="rgb(0,0,0)" stroke-opacity="1.0" x2="-6.0" y2="0.0">
          </line>
          <g transform="translate(-9.0 0.0 ) ">
            <text style="fill:#000000;" text-anchor="end" dy="0.35em">
            -0.5
            </text>
          </g>
        </g>
        <g class="tick" transform="translate(0.0 142.2854502101838 ) ">
          <line stroke-width="1.0" stroke="rgb(0,0,0)" stroke-opacity="1.0" x2="-6.0" y2="0.0">
          </line>
          <g transform="translate(-9.0 0.0 ) ">
            <text style="fill:#000000;" text-anchor="end" dy="0.35em">
            0.0
            </text>
          </g>
        </g>
        <g class="tick" transform="translate(0.0 76.12880331614456 ) ">
          <line stroke-width="1.0" stroke="rgb(0,0,0)" stroke-opacity="1.0" x2="-6.0" y2="0.0">
          </line>
          <g transform="translate(-9.0 0.0 ) ">
            <text style="fill:#000000;" text-anchor="end" dy="0.35em">
            0.5
            </text>
          </g>
        </g>
        <g class="tick" transform="translate(0.0 9.972156422105314 ) ">
          <line stroke-width="1.0" stroke="rgb(0,0,0)" stroke-opacity="1.0" x2="-6.0" y2="0.0">
          </line>
          <g transform="translate(-9.0 0.0 ) ">
            <text style="fill:#000000;" text-anchor="end" dy="0.35em">
            1.0
            </text>
          </g>
        </g>
        <line x1="0.0" y1="0.0" x2="0.0" y2="284.3333333333333" stroke-width="1.0" stroke="rgb(0,0,0)" stroke-opacity="1.0">
        </line>
      </g>
      <g transform="translate(35.8 0.0 ) " clip-path="url(#Yv3Pkf)" clip-bounds-jfx="[rect (0.0, 0.0), (434.2, 284.3333333333333)]">
        <defs>
          <clipPath id="Yv3Pkf">
            <rect x="0.0" y="0.0" width="434.2" height="284.3333333333333">
            </rect>
          </clipPath>
        </defs>
        <g>
          <path d="M19.736363636363638 142.2854502101838 L19.736363636363638 142.2854502101838 L23.723507805325987 134.29048721257638 L27.710651974288332 126.29552421496896 L31.697796143250677 118.30056121736153 L35.68494031221303 110.30559821975412 L39.672084481175375 102.3106352221467 L43.65922865013772 94.31567222453927 L47.646372819100065 86.32070922693185 L51.63351698806241 78.32574622932444 L55.620661157024756 70.33078323171702 L59.6078053259871 62.33582023410962 L63.59494949494945 55.613526304174385 L67.58209366391179 51.37872191559852 L71.56923783287414 47.14391752702264 L75.55638200183648 42.90911313844677 L79.54352617079883 38.674308749870875 L83.53067033976117 34.43950436129499 L87.51781450872352 30.204699972719098 L91.50495867768588 25.969895584143217 L95.49210284664822 21.735091195567335 L99.47924701561058 17.50028680699144 L103.46639118457293 13.265482418415559 L107.45353535353529 12.924242424242408 L111.44067952249763 14.441294527397744 L115.42782369145999 15.958346630553095 L119.41496786042234 17.475398733708445 L123.4021120293847 18.99245083686378 L127.38925619834704 20.509502940019118 L131.3764003673094 22.02655504317447 L135.36354453627175 23.54360714632982 L139.35068870523412 25.060659249485155 L143.33783287419644 26.577711352640506 L147.3249770431588 28.172276516419416 L151.31212121212116 34.72767756010215 L155.2992653810835 41.28307860378487 L159.28640955004587 47.838479647467594 L163.27355371900822 54.393880691150315 L167.26069788797057 60.94928173483305 L171.2478420569329 67.50468277851577 L175.23498622589526 74.0600838221985 L179.22213039485763 80.6154848658812 L183.20927456381997 87.17088590956394 L187.19641873278232 93.72628695324666 L191.18356290174466 100.97354523651843 L195.17070707070704 109.48419500077873 L199.15785123966938 117.99484476503905 L203.14499540863173 126.50549452929934 L207.13213957759407 135.01614429355965 L211.11928374655645 143.52679405781996 L215.1064279155188 152.03744382208026 L219.09357208448114 160.54809358634057 L223.08071625344348 169.05874335060088 L227.06786042240586 177.56939311486119 L231.0550045913682 186.08004287912146 L235.04214876033055 193.1732392289291 L239.0292929292929 199.6364562834246 L243.01643709825524 206.09967333792005 L247.0035812672176 212.56289039241557 L250.99072543617996 219.026107446911 L254.9778696051423 225.4893245014065 L258.96501377410465 231.95254155590197 L262.952157943067 238.41575861039746 L266.93930211202934 244.8789756648929 L270.9264462809917 251.34219271938838 L274.91359044995403 257.6488806652647 L278.90073461891643 259.0249016896473 L282.8878787878788 260.40092271402995 L286.8750229568411 261.77694373841257 L290.86216712580347 263.15296476279514 L294.8493112947658 264.5289857871778 L298.83645546372816 265.9050068115604 L302.82359963269056 267.281027835943 L306.8107438016529 268.65704886032563 L310.79788797061525 270.03306988470825 L314.7850321395776 271.4090909090909 L318.77217630853994 270.66781054931374 L322.7593204775023 266.3094736582648 L326.74646464646463 261.95113676721587 L330.733608815427 257.5927998761669 L334.7207529843893 253.23446298511797 L338.7078971533517 248.87612609406904 L342.69504132231407 244.51778920302007 L346.6821854912764 240.15945231197117 L350.66932966023876 235.8011154209222 L354.6564738292011 231.44277852987327 L358.64361799816345 227.08444163882433 L362.6307621671258 220.11856573207146 L366.61790633608814 212.0756628405718 L370.60505050505054 204.03275994907216 L374.5921946740129 195.98985705757252 L378.57933884297523 187.94695416607286 L382.5664830119376 179.9040512745732 L386.5536271808999 171.86114838307356 L390.54077134986227 163.81824549157392 L394.5279155188246 155.77534260007425 L398.51505968778696 147.73243970857462 L402.5022038567493 139.68953681707495 L406.4893480257117 131.64663392557532 L410.47649219467405 123.60373103407566 L414.4636363636364 115.56082814257603 " fill="none" stroke-width="1.0" stroke="rgb(17,142,216)" stroke-opacity="1.0">
          </path>
        </g>
      </g>
    </g>
    <g class="plt-axis">
      <g transform="translate(4.0 152.16666666666666 ) rotate(-90.0 ) " class="plt-axis-title">
        <text text-anchor="middle" dy="0.7em">
        y
        </text>
      </g>
    </g>
    <g class="plt-axis">
      <g transform="translate(272.9 329.3333333333333 ) " class="plt-axis-title">
        <text text-anchor="middle">
        x
        </text>
      </g>
    </g>
  </g>
</svg>