<svg xmlns="http://www.w3.org/2000/svg" class="plt-container" width="500.0" height="333.3333333333333">
  <style type="text/css">
  .plt-container {
	font-family: "Lucida Grande", sans-serif;
	cursor: crosshair;
	user-select: none;
	-webkit-user-select: none;
	-moz-user-select: none;
	-ms-user-select: none;
}
.plt-backdrop {
   fill: white;
}
.plt-transparent .plt-backdrop {
   visibility: hidden;
}
text {
	font-size: 12px;
	fill: #3d3d3d;
	
	text-rendering: optimizeLegibility;
}
.plt-data-tooltip text {
	font-size: 12px;
}
.plt-axis-tooltip text {
	font-size: 10px;
}
.plt-axis line {
	shape-rendering: crispedges;
}
.plt-plot-title {

  font-size: 16.0px;
  font-weight: bold;
}
.plt-axis .tick text {

  font-size: 10.0px;
}
.plt-axis.small-tick-font .tick text {

  font-size: 8.0px;
}
.plt-axis-title text {

  font-size: 12.0px;
}
.plt_legend .legend-title text {

  font-size: 12.0px;
  font-weight: bold;
}
.plt_legend text {

  font-size: 10.0px;
}

  </style>
  <rect class="plt-backdrop" width="100%" height="100%">
  </rect>
  <g class="plt-plot">
    <g transform="translate(20.0 10.0 ) ">
      <g transform="translate(15.7 284.3333333333333 ) " class="plt-axis">
        <g class="tick" transform="translate(20.65 0.0 ) ">
          <line stroke-width="1.0" stroke="rgb(0,0,0)" stroke-opacity="1.0" x2="0.0" y2="6.0">
          </line>
          <g transform="translate(0.0 9.0 ) ">
            <text style="fill:#000000;" text-anchor="middle" dy="0.7em">
            0
            </text>
          </g>
        </g>
        <g class="tick" transform="translate(103.25 0.0 ) ">
          <line stroke-width="1.0" stroke="rgb(0,0,0)" stroke-opacity="1.0" x2="0.0" y2="6.0">
          </line>
          <g transform="translate(0.0 9.0 ) ">
            <text style="fill:#000000;" text-anchor="middle" dy="0.7em">
            1
            </text>
          </g>
        </g>
        <g class="tick" transform="translate(185.85000000000002 0.0 ) ">
          <line stroke-width="1.0" stroke="rgb(0,0,0)" stroke-opacity="1.0" x2="0.0" y2="6.0">
          </line>
          <g transform="translate(0.0 9.0 ) ">
            <text style="fill:#000000;" text-anchor="middle" dy="0.7em">
            2
            </text>
          </g>
        </g>
        <g class="tick" transform="translate(268.45 0.0 ) ">
          <line stroke-width="1.0" stroke="rgb(0,0,0)" stroke-opacity="1.0" x2="0.0" y2="6.0">
          </line>
          <g transform="translate(0.0 9.0 ) ">
            <text style="fill:#000000;" text-anchor="middle" dy="0.7em">
            3
            </text>
          </g>
        </g>
        <g class="tick" transform="translate(351.05 0.0 ) ">
          <line stroke-width="1.0" stroke="rgb(0,0,0)" stroke-opacity="1.0" x2="0.0" y2="6.0">
          </line>
          <g transform="translate(0.0 9.0 ) ">
            <text style="fill:#000000;" text-anchor="middle" dy="0.7em">
            4
            </text>
          </g>
        </g>
        <g class="tick" transform="translate(433.65000000000003 0.0 ) ">
          <line stroke-width="1.0" stroke="rgb(0,0,0)" stroke-opacity="1.0" x2="0.0" y2="6.0">
          </line>
          <g transform="translate(0.0 9.0 ) ">
            <text style="fill:#000000;" text-anchor="middle" dy="0.7em">
            5
            </text>
          </g>
        </g>
        <line x1="0.0" y1="0.0" x2="454.3" y2="0.0" stroke-width="1.0" stroke="rgb(0,0,0)" stroke-opacity="1.0">
        </line>
      </g>
      <g transform="translate(15.7 0.0 ) " class="plt-axis">
        <g class="tick" transform="translate(0.0 271.40909090909093 ) ">
          <line stroke-width="1.0" stroke="rgb(0,0,0)" stroke-opacity="1.0" x2="-6.0" y2="0.0">
          </line>
          <g transform="translate(-9.0 0.0 ) ">
            <text style="fill:#000000;" text-anchor="end" dy="0.35em">
            0
            </text>
          </g>
        </g>
        <g class="tick" transform="translate(0.0 219.89763743117237 ) ">
          <line stroke-width="1.0" stroke="rgb(0,0,0)" stroke-opacity="1.0" x2="-6.0" y2="0.0">
          </line>
          <g transform="translate(-9.0 0.0 ) ">
            <text style="fill:#000000;" text-anchor="end" dy="0.35em">
            1
            </text>
          </g>
        </g>
        <g class="tick" transform="translate(0.0 168.3861839532538 ) ">
          <line stroke-width="1.0" stroke="rgb(0,0,0)" stroke-opacity="1.0" x2="-6.0" y2="0.0">
          </line>
          <g transform="translate(-9.0 0.0 ) ">
            <text style="fill:#000000;" text-anchor="end" dy="0.35em">
            2
            </text>
          </g>
        </g>
        <g class="tick" transform="translate(0.0 116.87473047533524 ) ">
          <line stroke-width="1.0" stroke="rgb(0,0,0)" stroke-opacity="1.0" x2="-6.0" y2="0.0">
          </line>
          <g transform="translate(-9.0 0.0 ) ">
            <text style="fill:#000000;" text-anchor="end" dy="0.35em">
            3
            </text>
          </g>
        </g>
        <g class="tick" transform="translate(0.0 65.36327699741668 ) ">
          <line stroke-width="1.0" stroke="rgb(0,0,0)" stroke-opacity="1.0" x2="-6.0" y2="0.0">
          </line>
          <g transform="translate(-9.0 0.0 ) ">
            <text style="fill:#000000;" text-anchor="end" dy="0.35em">
            4
            </text>
          </g>
        </g>
        <g class="tick" transform="translate(0.0 13.851823519498112 ) ">
          <line stroke-width="1.0" stroke="rgb(0,0,0)" stroke-opacity="1.0" x2="-6.0" y2="0.0">
          </line>
          <g transform="translate(-9.0 0.0 ) ">
            <text style="fill:#000000;" text-anchor="end" dy="0.35em">
            5
            </text>
          </g>
        </g>
        <line x1="0.0" y1="0.0" x2="0.0" y2="284.3333333333333" stroke-width="1.0" stroke="rgb(0,0,0)" stroke-opacity="1.0">
        </line>
      </g>
      <g transform="translate(15.7 0.0 ) " clip-path="url(#43hO3A)" clip-bounds-jfx="[rect (0.0, 0.0), (454.3, 284.3333333333333)]">
        <defs>
          <clipPath id="43hO3A">
            <rect x="0.0" y="0.0" width="454.3" height="284.3333333333333">
            </rect>
          </clipPath>
        </defs>
        <g>
          <path d="M20.65 271.40909090909093 L20.65 271.40909090909093 L24.82171717171717 262.027124148145 L28.993434343434345 252.566940732892 L33.165151515151514 243.04667914085792 L37.336868686868684 233.4844778495687 L41.50858585858586 223.8984753365503 L45.68030303030304 214.3068100793287 L49.8520202020202 204.7276205554298 L54.023737373737376 195.17904524237963 L58.195454545454545 185.67922261770406 L62.36717171717172 176.24629115892907 L66.53888888888889 166.89838934358065 L70.71060606060607 157.6536556491847 L74.88232323232324 148.53022855326725 L79.0540404040404 139.5462465333542 L83.22575757575758 130.71984806697148 L87.39747474747475 122.06917163164508 L91.56919191919192 113.61235570490092 L95.7409090909091 105.36753876426502 L99.91262626262628 97.35285928726327 L104.08434343434345 89.58645575142171 L108.25606060606063 82.08646663426617 L112.4277777777778 74.87103041332267 L116.59949494949498 67.95828556611715 L120.77121212121216 61.366370570175604 L124.94292929292936 55.11342390302397 L129.11464646464654 49.21758404218809 L133.28636363636372 43.69698946519412 L137.4580808080809 38.569778649567894 L141.62979797979807 33.85409007283542 L145.80151515151525 29.568062212522563 L149.97323232323245 25.729833546155305 L154.14494949494963 22.357542551259712 L158.3166666666668 19.469327705361593 L162.48838383838398 17.083327485986956 L166.66010101010116 15.217680370661753 L170.83181818181833 13.890524836911993 L175.0035353535355 13.11999936226357 L179.17525252525272 12.924242424242436 L183.3469696969699 13.321392500374543 L187.51868686868704 14.32906426434704 L191.69040404040422 15.944509515613873 L195.86212121212142 18.138527959769505 L200.0338383838386 20.880151464452638 L204.20555555555578 24.138411897301808 L208.37727272727295 27.882341125955662 L212.54898989899013 32.08097101805279 L216.7207070707073 36.70333344123185 L220.89242424242448 41.71846026313153 L225.0641414141417 47.095383351390325 L229.23585858585886 52.80313457364687 L233.40757575757604 58.81074579753974 L237.57929292929322 65.08724889070766 L241.7510101010104 71.60167572078916 L245.92272727272757 78.3230581554229 L250.09444444444475 85.22042806224744 L254.26616161616195 92.2628173089015 L258.43787878787913 99.41925776302364 L262.6095959595963 106.65878129225234 L266.7813131313135 113.95041976422644 L270.95303030303063 121.263109487776 L275.12474747474783 128.56435692881996 L279.296464646465 135.8205678573726 L283.4681818181822 142.9981197297273 L287.63989898989934 150.06339000217747 L291.81161616161654 156.9827561310164 L295.98333333333375 163.7225955725375 L300.1550505050509 170.24928578303408 L304.3267676767681 176.52920421879952 L308.49848484848525 182.52872833612713 L312.67020202020245 188.21423559131034 L316.8419191919196 193.55210344064244 L321.0136363636368 198.50870934041677 L325.185353535354 203.05043074692676 L329.35707070707116 207.1436451164657 L333.52878787878836 210.75472990532697 L337.7005050505055 213.85006256980392 L341.8722222222227 216.3960205661899 L346.04393939393987 218.35898135077824 L350.21565656565707 219.70532237986234 L354.3873737373742 220.40142110973554 L358.55909090909137 220.41365499669118 L362.7308080808085 219.70840149702263 L366.90252525252566 218.25203806702325 L371.0742424242428 216.0109421629864 L375.2459595959599 212.9514912412054 L379.41767676767705 209.04006275797363 L383.5893939393942 204.24303416958446 L387.76111111111135 198.52678293233123 L391.9328282828285 191.8576865025073 L396.10454545454564 184.202122336406 L400.2762626262628 175.5264678903207 L404.44797979797994 165.79710062054477 L408.6196969696971 154.98039798337157 L412.79141414141424 143.0427374350944 L416.9631313131314 129.95049643200664 L421.13484848484853 115.67005243040168 L425.3065656565657 100.16778288657284 L429.47828282828283 83.41006525681351 L433.6499999999999 65.36327699741696 " fill="none" stroke-width="1.0" stroke="rgb(17,142,216)" stroke-opacity="1.0">
          </path>
        </g>
      </g>
    </g>
    <g class="plt-axis">
      <g transform="translate(4.0 152.16666666666666 ) rotate(-90.0 ) " class="plt-axis-title">
        <text text-anchor="middle" dy="0.7em">
        y
        </text>
      </g>
    </g>
    <g class="plt-axis">
      <g transform="translate(262.85 329.3333333333333 ) " class="plt-axis-title">
        <text text-anchor="middle">
        x
        </text>
      </g>
    </g>
  </g>
</svg>