<svg xmlns="http://www.w3.org/2000/svg" class="plt-container" width="500.0" height="333.3333333333333">
  <style type="text/css">
  .plt-container {
	font-family: "Lucida Grande", sans-serif;
	cursor: crosshair;
	user-select: none;
	-webkit-user-select: none;
	-moz-user-select: none;
	-ms-user-select: none;
}
.plt-backdrop {
   fill: white;
}
.plt-transparent .plt-backdrop {
   visibility: hidden;
}
text {
	font-size: 12px;
	fill: #3d3d3d;
	
	text-rendering: optimizeLegibility;
}
.plt-data-tooltip text {
	font-size: 12px;
}
.plt-axis-tooltip text {
	font-size: 10px;
}
.plt-axis line {
	shape-rendering: crispedges;
}
.plt-plot-title {

  font-size: 16.0px;
  font-weight: bold;
}
.plt-axis .tick text {

  font-size: 10.0px;
}
.plt-axis.small-tick-font .tick text {

  font-size: 8.0px;
}
.plt-axis-title text {

  font-size: 12.0px;
}
.plt_legend .legend-title text {

  font-size: 12.0px;
  font-weight: bold;
}
.plt_legend text {

  font-size: 10.0px;
}

  </style>
  <rect class="plt-backdrop" width="100%" height="100%">
  </rect>
  <g class="plt-plot">
    <g transform="translate(20.0 10.0 ) ">
      <g transform="translate(29.1 284.3333333333333 ) " class="plt-axis">
        <g class="tick" transform="translate(20.040909090909096 0.0 ) ">
          <line stroke-width="1.0" stroke="rgb(0,0,0)" stroke-opacity="1.0" x2="0.0" y2="6.0">
          </line>
          <g transform="translate(0.0 9.0 ) ">
            <text style="fill:#000000;" text-anchor="middle" dy="0.7em">
            1
            </text>
          </g>
        </g>
        <g class="tick" transform="translate(86.84393939394036 0.0 ) ">
          <line stroke-width="1.0" stroke="rgb(0,0,0)" stroke-opacity="1.0" x2="0.0" y2="6.0">
          </line>
          <g transform="translate(0.0 9.0 ) ">
            <text style="fill:#000000;" text-anchor="middle" dy="0.7em">
            2
            </text>
          </g>
        </g>
        <g class="tick" transform="translate(153.6469696969716 0.0 ) ">
          <line stroke-width="1.0" stroke="rgb(0,0,0)" stroke-opacity="1.0" x2="0.0" y2="6.0">
          </line>
          <g transform="translate(0.0 9.0 ) ">
            <text style="fill:#000000;" text-anchor="middle" dy="0.7em">
            3
            </text>
          </g>
        </g>
        <g class="tick" transform="translate(220.4500000000029 0.0 ) ">
          <line stroke-width="1.0" stroke="rgb(0,0,0)" stroke-opacity="1.0" x2="0.0" y2="6.0">
          </line>
          <g transform="translate(0.0 9.0 ) ">
            <text style="fill:#000000;" text-anchor="middle" dy="0.7em">
            4
            </text>
          </g>
        </g>
        <g class="tick" transform="translate(287.25303030303417 0.0 ) ">
          <line stroke-width="1.0" stroke="rgb(0,0,0)" stroke-opacity="1.0" x2="0.0" y2="6.0">
          </line>
          <g transform="translate(0.0 9.0 ) ">
            <text style="fill:#000000;" text-anchor="middle" dy="0.7em">
            5
            </text>
          </g>
        </g>
        <g class="tick" transform="translate(354.0560606060654 0.0 ) ">
          <line stroke-width="1.0" stroke="rgb(0,0,0)" stroke-opacity="1.0" x2="0.0" y2="6.0">
          </line>
          <g transform="translate(0.0 9.0 ) ">
            <text style="fill:#000000;" text-anchor="middle" dy="0.7em">
            6
            </text>
          </g>
        </g>
        <g class="tick" transform="translate(420.85909090909666 0.0 ) ">
          <line stroke-width="1.0" stroke="rgb(0,0,0)" stroke-opacity="1.0" x2="0.0" y2="6.0">
          </line>
          <g transform="translate(0.0 9.0 ) ">
            <text style="fill:#000000;" text-anchor="middle" dy="0.7em">
            7
            </text>
          </g>
        </g>
        <line x1="0.0" y1="0.0" x2="440.9" y2="0.0" stroke-width="1.0" stroke="rgb(0,0,0)" stroke-opacity="1.0">
        </line>
      </g>
      <g transform="translate(29.1 0.0 ) " class="plt-axis">
        <g class="tick" transform="translate(0.0 270.24292949168364 ) ">
          <line stroke-width="1.0" stroke="rgb(0,0,0)" stroke-opacity="1.0" x2="-6.0" y2="0.0">
          </line>
          <g transform="translate(-9.0 0.0 ) ">
            <text style="fill:#000000;" text-anchor="end" dy="0.35em">
            2.0
            </text>
          </g>
        </g>
        <g class="tick" transform="translate(0.0 238.07809360825073 ) ">
          <line stroke-width="1.0" stroke="rgb(0,0,0)" stroke-opacity="1.0" x2="-6.0" y2="0.0">
          </line>
          <g transform="translate(-9.0 0.0 ) ">
            <text style="fill:#000000;" text-anchor="end" dy="0.35em">
            2.5
            </text>
          </g>
        </g>
        <g class="tick" transform="translate(0.0 205.9132577248178 ) ">
          <line stroke-width="1.0" stroke="rgb(0,0,0)" stroke-opacity="1.0" x2="-6.0" y2="0.0">
          </line>
          <g transform="translate(-9.0 0.0 ) ">
            <text style="fill:#000000;" text-anchor="end" dy="0.35em">
            3.0
            </text>
          </g>
        </g>
        <g class="tick" transform="translate(0.0 173.74842184138492 ) ">
          <line stroke-width="1.0" stroke="rgb(0,0,0)" stroke-opacity="1.0" x2="-6.0" y2="0.0">
          </line>
          <g transform="translate(-9.0 0.0 ) ">
            <text style="fill:#000000;" text-anchor="end" dy="0.35em">
            3.5
            </text>
          </g>
        </g>
        <g class="tick" transform="translate(0.0 141.58358595795204 ) ">
          <line stroke-width="1.0" stroke="rgb(0,0,0)" stroke-opacity="1.0" x2="-6.0" y2="0.0">
          </line>
          <g transform="translate(-9.0 0.0 ) ">
            <text style="fill:#000000;" text-anchor="end" dy="0.35em">
            4.0
            </text>
          </g>
        </g>
        <g class="tick" transform="translate(0.0 109.41875007451915 ) ">
          <line stroke-width="1.0" stroke="rgb(0,0,0)" stroke-opacity="1.0" x2="-6.0" y2="0.0">
          </line>
          <g transform="translate(-9.0 0.0 ) ">
            <text style="fill:#000000;" text-anchor="end" dy="0.35em">
            4.5
            </text>
          </g>
        </g>
        <g class="tick" transform="translate(0.0 77.25391419108627 ) ">
          <line stroke-width="1.0" stroke="rgb(0,0,0)" stroke-opacity="1.0" x2="-6.0" y2="0.0">
          </line>
          <g transform="translate(-9.0 0.0 ) ">
            <text style="fill:#000000;" text-anchor="end" dy="0.35em">
            5.0
            </text>
          </g>
        </g>
        <g class="tick" transform="translate(0.0 45.08907830765338 ) ">
          <line stroke-width="1.0" stroke="rgb(0,0,0)" stroke-opacity="1.0" x2="-6.0" y2="0.0">
          </line>
          <g transform="translate(-9.0 0.0 ) ">
            <text style="fill:#000000;" text-anchor="end" dy="0.35em">
            5.5
            </text>
          </g>
        </g>
        <g class="tick" transform="translate(0.0 12.924242424220438 ) ">
          <line stroke-width="1.0" stroke="rgb(0,0,0)" stroke-opacity="1.0" x2="-6.0" y2="0.0">
          </line>
          <g transform="translate(-9.0 0.0 ) ">
            <text style="fill:#000000;" text-anchor="end" dy="0.35em">
            6.0
            </text>
          </g>
        </g>
        <line x1="0.0" y1="0.0" x2="0.0" y2="284.3333333333333" stroke-width="1.0" stroke="rgb(0,0,0)" stroke-opacity="1.0">
        </line>
      </g>
      <g transform="translate(29.1 0.0 ) " clip-path="url(#LCOjRU)" clip-bounds-jfx="[rect (0.0, 0.0), (440.9, 284.3333333333333)]">
        <defs>
          <clipPath id="LCOjRU">
            <rect x="0.0" y="0.0" width="440.9" height="284.3333333333333">
            </rect>
          </clipPath>
        </defs>
        <g>
          <path d="M20.040909090909096 205.9132577248178 L20.040909090909096 205.9132577248178 L20.844151940244146 204.18491393916696 L21.647394789579195 202.45739856552242 L22.45063763891423 200.73154001589054 L23.25388048824928 199.0081667022776 L24.05712333758433 197.28810703669006 L24.86036618691938 195.57218943113412 L25.663609036254414 193.86124229761614 L26.466851885589463 192.15609404814248 L27.270094734924513 190.4575730947195 L28.073337584259562 188.76650784935345 L28.876580433594597 187.08372672405068 L29.679823282929647 185.41005813081753 L30.483066132264696 183.74633048166035 L31.286308981599745 182.09337218858548 L32.08955183093478 180.45201166359917 L32.89279468026983 178.82307731870782 L33.69603752960488 177.20739756591774 L34.49928037893993 175.60580081723526 L35.30252322827498 174.01911548466668 L36.105766077610014 172.44816998021838 L36.90900892694506 170.89379271589667 L37.71225177628011 169.35681210370788 L38.51549462561516 167.83805655565834 L39.3187374749502 166.33835448375436 L40.121980324285246 164.85853430000228 L40.925223173620296 163.39942441640846 L41.728466022955345 161.9618532449792 L42.53170887229038 160.5466491977208 L43.33495172162543 159.15464068663965 L44.13819457096048 157.786656123742 L44.94143742029553 156.44352392103428 L45.744680269630564 155.12607249052274 L46.54792311896561 153.8351302442138 L47.35116596830066 152.57152559411367 L48.15440881763571 151.33608695222875 L48.95765166697076 150.12964273056537 L49.7608945163058 148.9530213411298 L50.564137365640846 147.80705119592844 L51.367380214975896 146.69256070696764 L52.170623064310945 145.61037828625365 L52.97386591364598 144.56133234579286 L53.77710876298103 143.54625129759148 L54.58035161231608 142.565963553656 L55.38359446165113 141.6212975259927 L56.186837310986164 140.7130816266079 L56.99008016032121 139.84214426750793 L57.79332300965626 139.00931386069897 L58.59656585899131 138.21541881818763 L59.39980870832635 137.46128755198004 L60.2030515576614 136.74774847408258 L61.006294406996446 136.07562999650162 L61.809537256331495 135.44576053124348 L62.61278010566653 134.85896849031445 L63.41602295500158 134.31608228572082 L64.21926580433663 133.817930329469 L65.02250865367168 133.3653410335653 L65.82575150300673 132.9591428100161 L66.62899435234176 132.6001640708276 L67.43223720167681 132.28923322800625 L68.23548005101186 132.02717869355826 L69.03872290034691 131.81482887949005 L69.84196574968195 131.65301219780798 L70.645208599017 131.54255706051822 L71.44845144835205 131.48429187962734 L72.2516942976871 131.4790450671415 L73.05493714702213 131.52764503506705 L73.85817999635718 131.6309201954104 L74.66142284569223 131.78969896017765 L75.46466569502728 132.00480974137542 L76.26790854436231 132.2770809510099 L77.07115139369736 132.6073410010875 L77.87439424303241 132.9964183036144 L78.67763709236746 133.445141270597 L79.48087994170251 133.95433831404165 L80.28412279103755 134.52483784595466 L81.0873656403726 135.15746827834238 L81.89060848970763 135.85305802321125 L82.69385133904268 136.61243549256727 L83.49709418837773 137.43642909841708 L84.30033703771278 138.32586725276695 L85.10357988704783 139.28157836762307 L85.90682273638288 140.304390854992 L86.71006558571793 141.39513312687978 L87.51330843505298 142.55434834179334 L88.316551284388 143.78068329297363 L89.11979413372302 145.07201116617074 L89.92303698305807 146.42620286510672 L90.72627983239309 147.8411292935036 L91.52952268172811 149.31466135508344 L92.33276553106316 150.8446699535683 L93.13600838039818 152.42902599268027 L93.9392512297332 154.06560037614133 L94.74249407906825 155.75226400767355 L95.54573692840327 157.48688779099902 L96.34897977773832 159.2673426298397 L97.15222262707334 161.09149942791777 L97.95546547640836 162.9572290889552 L98.75870832574341 164.86240251667397 L99.56195117507843 166.8048906147963 L100.36519402441346 168.78256428704418 L101.1684368737485 170.79329443713956 L101.97167972308353 172.83495196880463 L102.77492257241855 174.90540778576135 L103.5781654217536 177.00253279173177 L104.38140827108862 179.12419789043804 L105.18465112042367 181.2682739856021 L105.98789396975869 183.432631980946 L106.79113681909371 185.61514278019192 L107.59437966842876 187.81367728706178 L108.39762251776378 190.02610640527766 L109.2008653670988 192.25030103856164 L110.00410821643385 194.4841320906358 L110.80735106576887 196.7254704652221 L111.61059391510389 198.97218706604266 L112.41383676443894 201.2221527968195 L113.21707961377396 203.47323856127466 L114.02032246310898 205.72331526313022 L114.82356531244403 207.97025380610825 L115.62680816177905 210.21192509393072 L116.4300510111141 212.4462000303198 L117.23329386044912 214.67094951899742 L118.03653670978414 216.8840444636857 L118.8397795591192 219.08335576810674 L119.64302240845421 221.26675433598243 L120.44626525778924 223.432111071035 L121.24950810712429 225.57729687698637 L122.0527509564593 227.70018265755863 L122.85599380579433 229.79863931647384 L123.65923665512938 231.8705377574541 L124.4624795044644 233.91374888422138 L125.26572235379945 235.92614360049774 L126.06896520313447 237.9055928100053 L126.87220805246949 239.84996741646606 L127.67545090180454 241.75713832360205 L128.47869375113956 243.62497643513535 L129.28193660047458 245.45135265478805 L130.08517944980963 247.23413788628213 L130.88842229914465 248.97120303333963 L131.69166514847967 250.66041899968272 L132.49490799781472 252.2996566890333 L133.29815084714974 253.88678700511355 L134.10139369648476 255.41968085164547 L134.9046365458198 256.89620913235103 L135.70787939515483 258.3142427509524 L136.51112224448988 259.67165261117157 L137.3143650938249 260.96630961673065 L138.11760794315992 262.1960846713516 L138.92085079249497 263.35884867875654 L139.72409364183 264.45247254266746 L140.52733649116502 265.47482716680656 L141.33057934050007 266.42378345489567 L142.1338221898351 267.29721231065696 L142.9370650391701 268.0929846378126 L143.74030788850516 268.8089713400844 L144.54355073784018 269.4430433211945 L145.34679358717523 269.993071484865 L146.15003643651025 270.456926734818 L146.95327928584527 270.8324799747754 L147.75652213518032 271.1176021084594 L148.55976498451534 271.3101640395919 L149.36300783385036 271.408036671895 L150.1662506831854 271.4090909090909 L150.96949353252043 271.31119765490143 L151.77273638185545 271.11222781304883 L152.5759792311905 270.8100522872551 L153.37922208052552 270.4025419812421 L154.18246492986054 269.88778751063535 L154.9857077791956 269.26643364193495 L155.7889506285306 268.5407729809153 L156.59219347786566 267.7131255973386 L157.39543632720068 266.78581156096726 L158.1986791765357 265.76115094156347 L159.00192202587075 264.64146380888945 L159.80516487520578 263.42907023270766 L160.6084077245408 262.12629028278013 L161.41165057387585 260.7354440288693 L162.21489342321087 259.2588515407374 L163.0181362725459 257.69883288814674 L163.82137912188094 256.0577081408595 L164.62462197121596 254.33779736863806 L165.427864820551 252.54142064124466 L166.23110766988603 250.6708980284415 L167.03435051922105 248.728549599991 L167.8375933685561 246.71669542565525 L168.64083621789112 244.63765557519673 L169.44407906722614 242.49375011837753 L170.2473219165612 240.28729912496001 L171.0505647658962 238.02062266470648 L171.85380761523123 235.69604080737915 L172.65705046456628 233.31587362274033 L173.4602933139013 230.88244118055226 L174.26353616323632 228.39806355057723 L175.06677901257137 225.86506080257755 L175.8700218619064 223.28575300631542 L176.67326471124144 220.6624602315532 L177.47650756057647 217.99750254805312 L178.2797504099115 215.2932000255774 L179.08299325924654 212.55187273388842 L179.88623610858156 209.7758407427484 L180.68947895791658 206.9674241219196 L181.49272180725163 204.12894294116435 L182.29596465658665 201.26271727024482 L183.09920750592167 198.37106717892343 L183.90245035525672 195.4563127369623 L184.70569320459174 192.52077401412384 L185.5089360539268 189.56677108017027 L186.3121789032618 186.5966240048638 L187.11542175259683 183.6126528579668 L187.91866460193188 180.6171777092415 L188.7219074512669 177.61251862845015 L189.52515030060192 174.6009956853551 L190.32839314993697 171.58492894971857 L191.131635999272 168.56663849130283 L191.934878848607 165.54844437987018 L192.73812169794206 162.53266668518287 L193.54136454727708 159.52162547700314 L194.3446073966121 156.51764082509345 L195.14785024594715 153.52303279921577 L195.95109309528218 150.54012146913269 L196.75433594461722 147.57122690460628 L197.55757879395225 144.61866917539882 L198.36082164328727 141.68476835127268 L199.16406449262232 138.77184450199002 L199.96730734195734 135.8822176973132 L200.77055019129236 133.01820800700455 L201.5737930406274 130.18213550082623 L202.37703588996243 127.3763202485406 L203.18027873929745 124.60308231990979 L203.9835215886325 121.86474178469626 L204.78676443796752 119.16361871266213 L205.59000728730257 116.50203317356966 L206.3932501366376 113.88230523718136 L207.1964929859726 111.30675497325933 L207.99973583530766 108.77770245156574 L208.80297868464268 106.2974677418631 L209.6062215339777 103.86837091391357 L210.40946438331275 101.49273203747947 L211.2127072326478 99.17287118232287 L212.0159500819828 96.91110841820625 L212.81919293131784 94.70976381489197 L213.6224357806529 92.57115744214207 L214.42567862998789 90.49760936971887 L215.22892147932293 88.49143966738478 L216.03216432865798 86.55496840490201 L216.83540717799298 84.69051565203284 L217.63865002732803 82.90040147853944 L218.44189287666308 81.18694595418424 L219.24513572599807 79.55246914872936 L220.04837857533312 77.99929113193713 L220.85162142466817 76.52966046604354 L221.65486427400316 75.14418104017437 L222.4581071233382 73.8418120703463 L223.26134997267326 72.62144126504904 L224.06459282200825 71.48195633277282 L224.8678356713433 70.42224498200738 L225.67107852067835 69.44119492124275 L226.47432137001334 68.53769385896891 L227.2775642193484 67.71062950367559 L228.08080706868344 66.958889563853 L228.88404991801843 66.28136174799096 L229.68729276735348 65.67693376457942 L230.49053561668853 65.14449332210842 L231.29377846602358 64.6829281290677 L232.09702131535857 64.29112589394737 L232.90026416469362 63.967974325237265 L233.70350701402867 63.712361131427485 L234.50674986336367 63.52317402100783 L235.30999271269872 63.39930070246834 L236.11323556203376 63.33962888429886 L236.91647841136876 63.34304627498949 L237.7197212607038 63.40844058302997 L238.52296411003886 63.53469951691039 L239.32620695937385 63.720710785120616 L240.1294498087089 63.96536209615067 L240.93269265804395 64.26754115849042 L241.73593550737894 64.62613568062989 L242.539178356714 65.040033371059 L243.34242120604904 65.50812193826755 L244.14566405538403 66.02928909074564 L244.94890690471908 66.60242253698323 L245.75214975405413 67.22640998547018 L246.55539260338912 67.9001391446966 L247.35863545272417 68.6224977231521 L248.16187830205922 69.39237342932688 L248.96512115139421 70.20865397171093 L249.76836400072926 71.07022705879399 L250.5716068500643 71.97598039906615 L251.37484969939936 72.92480170101732 L252.17809254873436 73.91557867313742 L252.9813353980694 74.94719902391643 L253.78457824740445 76.01855046184426 L254.58782109673945 77.12852069541094 L255.3910639460745 78.27599743310623 L256.19430679540955 79.45986838342026 L256.99754964474454 80.67902125484295 L257.8007924940796 81.93234375586405 L258.60403534341464 83.21872359497377 L259.40727819274963 84.5370484806619 L260.2105210420847 85.88620612141841 L261.0137638914197 87.26508422573329 L261.8170067407547 88.67257050209639 L262.62024959008977 90.1075526589978 L263.4234924394248 91.56891840492727 L264.2267352887598 93.05555544837489 L265.02997813809486 94.56635149783057 L265.8332209874299 96.10019426178422 L266.6364638367649 97.65597144872584 L267.43970668609995 99.23257076714538 L268.242949535435 100.8288799255327 L269.04619238477 102.4437866323778 L269.84943523410504 104.07617859617062 L270.6526780834401 105.72494352540122 L271.45592093277514 107.38896912855927 L272.25916378211014 109.06714311413486 L273.0624066314452 110.75835319061804 L273.86564948078023 112.46148706649865 L274.6688923301152 114.17543245026661 L275.4721351794503 115.89907705041196 L276.2753780287853 117.6313085754245 L277.0786208781203 119.37101473379431 L277.88186372745537 121.1170832340112 L278.6851065767904 122.86840178456526 L279.4883494261254 124.62385809394641 L280.29159227546046 126.3823398706445 L281.0948351247955 128.14273482314957 L281.8980779741305 129.90393065995153 L282.70132082346555 131.66481508954018 L283.5045636728006 133.42427582040574 L284.3078065221356 135.181200561038 L285.11104937147064 136.93447701992687 L285.9142922208057 138.6829929055624 L286.7175350701407 140.42563592643432 L287.52077791947573 142.16129723199663 L288.3240207688108 143.88907442952348 L289.1272636181458 145.60838513591196 L289.9305064674808 147.31867449576836 L290.7337493168159 149.01938765369908 L291.5369921661509 150.70996975431052 L292.3402350154859 152.38986594220884 L293.14347786482097 154.05852136200056 L293.946720714156 155.71538115829196 L294.749963563491 157.35989047568944 L295.55320641282606 158.9914944587993 L296.3564492621611 160.609638252228 L297.1596921114961 162.21376700058178 L297.96293496083115 163.80332584846698 L298.7661778101662 165.37775994049 L299.5694206595012 166.93651442125724 L300.37266350883624 168.479034435375 L301.1759063581713 170.00476512744962 L301.9791492075063 171.51315164208745 L302.78239205684133 173.0036391238949 L303.5856349061764 174.4756727174783 L304.3888777555114 175.92869756744395 L305.1921206048464 177.36215881839823 L305.9953634541815 178.77550161494756 L306.79860630351646 180.1681711016982 L307.6018491528515 181.53961242325653 L308.40509200218656 182.88927072422894 L309.20833485152156 184.21659114922173 L310.0115777008566 185.5210188428413 L310.81482055019166 186.80199894969397 L311.6180633995267 188.0589766143861 L312.4213062488617 189.29139698152403 L313.22454909819675 190.4987051957141 L314.0277919475318 191.6803464015628 L314.8310347968668 192.83576574367626 L315.63427764620184 193.96440836666102 L316.4375204955369 195.0657194151233 L317.2407633448719 196.13914403366954 L318.04400619420693 197.18412736690607 L318.847249043542 198.20011455943924 L319.65049189287697 199.1865507558754 L320.453734742212 200.1428811008209 L321.25697759154707 201.06855073888207 L322.06022044088206 201.9630048146653 L322.8634632902171 202.82568847277693 L323.66670613955216 203.6560468578233 L324.46994898888715 204.45352511441078 L325.2731918382222 205.21756838714577 L326.07643468755725 205.94762182063448 L326.87967753689225 206.6431305594834 L327.6829203862273 207.3035397482989 L328.48616323556234 207.9282945316872 L329.28940608489734 208.5168400542547 L330.0926489342324 209.06862146060777 L330.89589178356744 209.58308389535281 L331.6991346329025 210.05967250309612 L332.5023774822375 210.49783242844404 L333.3056203315725 210.89700881600294 L334.1088631809076 211.25664681037924 L334.91210603024257 211.57619155617917 L335.7153488795776 211.85508819800916 L336.51859172891267 212.09278188047554 L337.32183457824766 212.28871774818467 L338.1250774275827 212.44234094574293 L338.92832027691776 212.55309661775658 L339.73156312625275 212.62042990883205 L340.5348059755878 212.6437859635757 L341.33804882492285 212.62260992659387 L342.14129167425784 212.5563469424929 L342.9445345235929 212.4444421558791 L343.74777737292794 212.28634071135892 L344.55102022226293 212.08148775353862 L345.354263071598 211.82932842702465 L346.15750592093303 211.52930787642327 L346.960748770268 211.18087124634087 L347.7639916196031 210.7834636813838 L348.5672344689381 210.33653032615845 L349.3704773182731 209.83951632527112 L350.17372016760817 209.29186682332815 L350.9769630169432 208.69302696493597 L351.78020586627827 208.0424418947008 L352.58344871561326 207.3395567572292 L353.3866915649483 206.5838166971273 L354.18993441428336 205.77466778694665 L354.99317726361835 204.91187067261632 L355.7964201129534 203.995957122416 L356.59966296228845 203.0275748977587 L357.40290581162344 202.0073717600575 L358.2061486609585 200.93599547072546 L359.00939151029354 199.81409379117562 L359.81263435962853 198.642314482821 L360.6158772089636 197.42130530707468 L361.41912005829863 196.15171402534966 L362.2223629076336 194.8341883990591 L363.0256057569687 193.46937618961593 L363.8288486063037 192.05792515843322 L364.6320914556387 190.60048306692408 L365.43533430497376 189.09769767650153 L366.2385771543088 187.55021674857858 L367.0418200036438 185.9586880445683 L367.84506285297886 184.3237593258838 L368.6483057023139 182.64607835393807 L369.4515485516489 180.9262928901441 L370.25479140098395 179.1650506959151 L371.058034250319 177.36299953266396 L371.86127709965405 175.52078716180378 L372.66451994898904 173.63906134474766 L373.4677627983241 171.71846984290863 L374.27100564765914 169.75966041769968 L375.07424849699413 167.7632808305339 L375.8774913463292 165.72997884282435 L376.68073419566423 163.66040221598405 L377.4839770449992 161.55519871142602 L378.28721989433427 159.41501609056346 L379.0904627436693 157.24050211480923 L379.8937055930043 155.03230454557652 L380.69694844233936 152.79107114427825 L381.5001912916744 150.5174496723276 L382.3034341410094 148.21208789113751 L383.10667699034445 145.8756335621211 L383.9099198396795 143.50873444669136 L384.7131626890145 141.1120383062614 L385.51640553834955 138.68619290224427 L386.3196483876846 136.23184599605287 L387.1228912370196 133.7496453491005 L387.92613408635464 131.2402387228001 L388.7293769356897 128.70427387856455 L389.5326197850247 126.14239857780717 L390.3358626343597 123.55526058194084 L391.1391054836948 120.94350765237863 L391.9423483330298 118.30778755053365 L392.7455911823648 115.64874803781885 L393.54883403169987 112.96703687564741 L394.3520768810349 110.26330182543222 L395.1553197303699 107.53819064858658 L395.95856257970496 104.7923511065232 L396.76180542904 102.02643096065543 L397.565048278375 99.24107797239611 L398.36829112771005 96.43693990315842 L399.1715339770451 93.6146645143553 L399.9747768263801 90.77489956739987 L400.77801967571514 87.91829282370526 L401.5812625250502 85.0454920446843 L402.3845053743852 82.15714499175027 L403.18774822372023 79.25389942631602 L403.9909910730553 76.33640310979479 L404.7942339223903 73.40530380359945 L405.5974767717253 70.4612492691432 L406.4007196210604 67.50488726783897 L407.20396247039537 64.53686556109989 L408.0072053197304 61.557831910338905 L408.81044816906547 58.568434076969254 L409.61369101840046 55.56931982240371 L410.4169338677355 52.56113690805563 L411.22017671707056 49.54453309533784 L412.0234195664056 46.520156145663464 L412.8266624157406 43.48865382044556 L413.62990526507565 40.4506738810972 L414.4331481144107 37.406864089031274 L415.2363909637457 34.357872205661124 L416.03963381308074 31.304345992399476 L416.8428766624158 28.24693321065962 L417.6461195117508 25.186281621854505 L418.44936236108583 22.123038987397138 L419.2526052104209 19.057853068700638 L420.0558480597559 15.991371627178069 L420.8590909090909 12.92424242424238 " fill="none" stroke-width="1.0" stroke="rgb(17,142,216)" stroke-opacity="1.0">
          </path>
        </g>
      </g>
    </g>
    <g class="plt-axis">
      <g transform="translate(4.0 152.16666666666666 ) rotate(-90.0 ) " class="plt-axis-title">
        <text text-anchor="middle" dy="0.7em">
        y
        </text>
      </g>
    </g>
    <g class="plt-axis">
      <g transform="translate(269.55 329.3333333333333 ) " class="plt-axis-title">
        <text text-anchor="middle">
        x
        </text>
      </g>
    </g>
  </g>
</svg>