<svg xmlns="http://www.w3.org/2000/svg" class="plt-container" width="500.0" height="333.3333333333333">
  <style type="text/css">
  .plt-container {
	font-family: "Lucida Grande", sans-serif;
	cursor: crosshair;
	user-select: none;
	-webkit-user-select: none;
	-moz-user-select: none;
	-ms-user-select: none;
}
.plt-backdrop {
   fill: white;
}
.plt-transparent .plt-backdrop {
   visibility: hidden;
}
text {
	font-size: 12px;
	fill: #3d3d3d;
	
	text-rendering: optimizeLegibility;
}
.plt-data-tooltip text {
	font-size: 12px;
}
.plt-axis-tooltip text {
	font-size: 10px;
}
.plt-axis line {
	shape-rendering: crispedges;
}
.plt-plot-title {

  font-size: 16.0px;
  font-weight: bold;
}
.plt-axis .tick text {

  font-size: 10.0px;
}
.plt-axis.small-tick-font .tick text {

  font-size: 8.0px;
}
.plt-axis-title text {

  font-size: 12.0px;
}
.plt_legend .legend-title text {

  font-size: 12.0px;
  font-weight: bold;
}
.plt_legend text {

  font-size: 10.0px;
}

  </style>
  <rect class="plt-backdrop" width="100%" height="100%">
  </rect>
  <g class="plt-plot">
    <g transform="translate(20.0 10.0 ) ">
      <g transform="translate(15.7 284.3333333333333 ) " class="plt-axis">
        <g class="tick" transform="translate(20.65 0.0 ) ">
          <line stroke-width="1.0" stroke="rgb(0,0,0)" stroke-opacity="1.0" x2="0.0" y2="6.0">
          </line>
          <g transform="translate(0.0 9.0 ) ">
            <text style="fill:#000000;" text-anchor="middle" dy="0.7em">
            0
            </text>
          </g>
        </g>
        <g class="tick" transform="translate(103.25 0.0 ) ">
          <line stroke-width="1.0" stroke="rgb(0,0,0)" stroke-opacity="1.0" x2="0.0" y2="6.0">
          </line>
          <g transform="translate(0.0 9.0 ) ">
            <text style="fill:#000000;" text-anchor="middle" dy="0.7em">
            1
            </text>
          </g>
        </g>
        <g class="tick" transform="translate(185.85000000000002 0.0 ) ">
          <line stroke-width="1.0" stroke="rgb(0,0,0)" stroke-opacity="1.0" x2="0.0" y2="6.0">
          </line>
          <g transform="translate(0.0 9.0 ) ">
            <text style="fill:#000000;" text-anchor="middle" dy="0.7em">
            2
            </text>
          </g>
        </g>
        <g class="tick" transform="translate(268.45 0.0 ) ">
          <line stroke-width="1.0" stroke="rgb(0,0,0)" stroke-opacity="1.0" x2="0.0" y2="6.0">
          </line>
          <g transform="translate(0.0 9.0 ) ">
            <text style="fill:#000000;" text-anchor="middle" dy="0.7em">
            3
            </text>
          </g>
        </g>
        <g class="tick" transform="translate(351.05 0.0 ) ">
          <line stroke-width="1.0" stroke="rgb(0,0,0)" stroke-opacity="1.0" x2="0.0" y2="6.0">
          </line>
          <g transform="translate(0.0 9.0 ) ">
            <text style="fill:#000000;" text-anchor="middle" dy="0.7em">
            4
            </text>
          </g>
        </g>
        <g class="tick" transform="translate(433.65000000000003 0.0 ) ">
          <line stroke-width="1.0" stroke="rgb(0,0,0)" stroke-opacity="1.0" x2="0.0" y2="6.0">
          </line>
          <g transform="translate(0.0 9.0 ) ">
            <text style="fill:#000000;" text-anchor="middle" dy="0.7em">
            5
            </text>
          </g>
        </g>
        <line x1="0.0" y1="0.0" x2="454.3" y2="0.0" stroke-width="1.0" stroke="rgb(0,0,0)" stroke-opacity="1.0">
        </line>
      </g>
      <g transform="translate(15.7 0.0 ) " class="plt-axis">
        <g class="tick" transform="translate(0.0 271.40909090909093 ) ">
          <line stroke-width="1.0" stroke="rgb(0,0,0)" stroke-opacity="1.0" x2="-6.0" y2="0.0">
          </line>
          <g transform="translate(-9.0 0.0 ) ">
            <text style="fill:#000000;" text-anchor="end" dy="0.35em">
            0
            </text>
          </g>
        </g>
        <g class="tick" transform="translate(0.0 220.12226824277946 ) ">
          <line stroke-width="1.0" stroke="rgb(0,0,0)" stroke-opacity="1.0" x2="-6.0" y2="0.0">
          </line>
          <g transform="translate(-9.0 0.0 ) ">
            <text style="fill:#000000;" text-anchor="end" dy="0.35em">
            1
            </text>
          </g>
        </g>
        <g class="tick" transform="translate(0.0 168.835445576468 ) ">
          <line stroke-width="1.0" stroke="rgb(0,0,0)" stroke-opacity="1.0" x2="-6.0" y2="0.0">
          </line>
          <g transform="translate(-9.0 0.0 ) ">
            <text style="fill:#000000;" text-anchor="end" dy="0.35em">
            2
            </text>
          </g>
        </g>
        <g class="tick" transform="translate(0.0 117.54862291015655 ) ">
          <line stroke-width="1.0" stroke="rgb(0,0,0)" stroke-opacity="1.0" x2="-6.0" y2="0.0">
          </line>
          <g transform="translate(-9.0 0.0 ) ">
            <text style="fill:#000000;" text-anchor="end" dy="0.35em">
            3
            </text>
          </g>
        </g>
        <g class="tick" transform="translate(0.0 66.26180024384507 ) ">
          <line stroke-width="1.0" stroke="rgb(0,0,0)" stroke-opacity="1.0" x2="-6.0" y2="0.0">
          </line>
          <g transform="translate(-9.0 0.0 ) ">
            <text style="fill:#000000;" text-anchor="end" dy="0.35em">
            4
            </text>
          </g>
        </g>
        <g class="tick" transform="translate(0.0 14.974977577533593 ) ">
          <line stroke-width="1.0" stroke="rgb(0,0,0)" stroke-opacity="1.0" x2="-6.0" y2="0.0">
          </line>
          <g transform="translate(-9.0 0.0 ) ">
            <text style="fill:#000000;" text-anchor="end" dy="0.35em">
            5
            </text>
          </g>
        </g>
        <line x1="0.0" y1="0.0" x2="0.0" y2="284.3333333333333" stroke-width="1.0" stroke="rgb(0,0,0)" stroke-opacity="1.0">
        </line>
      </g>
      <g transform="translate(15.7 0.0 ) " clip-path="url(#XFzAsV)" clip-bounds-jfx="[rect (0.0, 0.0), (454.3, 284.3333333333333)]">
        <defs>
          <clipPath id="XFzAsV">
            <rect x="0.0" y="0.0" width="454.3" height="284.3333333333333">
            </rect>
          </clipPath>
        </defs>
        <g>
          <path d="M20.65 271.40909090909093 L20.65 271.40909090909093 L24.82171717171717 270.5640188060307 L28.993434343434345 268.1111856383616 L33.165151515151514 264.1741661183511 L37.336868686868684 258.87653495826663 L41.50858585858586 252.34186687037572 L45.68030303030304 244.6937365669458 L49.8520202020202 236.0557187602443 L54.023737373737376 226.55138816253873 L58.195454545454545 216.30431948609652 L62.36717171717172 205.4380874431851 L66.53888888888889 194.07626674607198 L70.71060606060607 182.3424321070246 L74.88232323232324 170.36015823831045 L79.0540404040404 158.25301985219693 L83.22575757575758 146.14459166095156 L87.39747474747475 134.15844837684176 L91.56919191919192 122.41816471213497 L95.7409090909091 111.0473153790987 L99.91262626262628 100.16947509000039 L104.08434343434345 89.90803520245638 L108.25606060606063 80.3475158880498 L112.4277777777778 71.48571056839322 L116.59949494949498 63.308677967428906 L120.77121212121216 55.80247680909898 L124.94292929292936 48.95316581734568 L129.11464646464654 42.746803716111145 L133.28636363636372 37.169449229337715 L137.4580808080809 32.207161080967495 L141.62979797979807 27.84599799494265 L145.80151515151525 24.072018695205372 L149.97323232323245 20.87128190569797 L154.14494949494963 18.229846350362607 L158.3166666666668 16.133770753141363 L162.48838383838398 14.569113837976488 L166.66010101010116 13.52193432881029 L170.83181818181833 12.978290949584846 L175.0035353535355 12.924242424242436 L179.17525252525272 13.345847476725169 L183.3469696969699 14.229164830975321 L187.51868686868704 15.560312896035214 L191.69040404040422 17.327730339218448 L195.86212121212142 19.522869925399505 L200.0338383838386 22.137385856666384 L204.20555555555578 25.162932335106774 L208.37727272727295 28.591163562808617 L212.54898989899013 32.413733741859716 L216.7207070707073 36.62229707434793 L220.89242424242448 41.20850776236114 L225.0641414141417 46.16402000798715 L229.23585858585886 51.48048801331376 L233.40757575757604 57.14956598042892 L237.57929292929322 63.16290811142042 L241.7510101010104 69.51216860837616 L245.92272727272757 76.18900167338384 L250.09444444444475 83.18506150853148 L254.26616161616195 90.49200231590683 L258.43787878787913 98.10147829759771 L262.6095959595963 106.00514365569211 L266.7813131313135 114.19465259227775 L270.95303030303063 122.65866847895427 L275.12474747474783 131.34110300149874 L279.296464646465 140.1514179093244 L283.4681818181822 148.9981887798482 L287.63989898989934 157.7899911904869 L291.81161616161654 166.43540071865738 L295.98333333333375 174.84299294177654 L300.1550505050509 182.92134343726124 L304.3267676767681 190.57902778252827 L308.49848484848525 197.7246215549946 L312.67020202020245 204.266700332077 L316.8419191919196 210.11383969119237 L321.0136363636368 215.17461520975755 L325.185353535354 219.35760246518942 L329.35707070707116 222.5713770349048 L333.52878787878836 224.72451449632064 L337.7005050505055 225.72559042685367 L341.8722222222227 225.48318040392084 L346.04393939393987 223.905860004939 L350.21565656565707 220.90220480732498 L354.3873737373742 216.40359616645105 L358.55909090909137 210.50996439039062 L362.7308080808085 203.3967839266943 L366.90252525252566 195.23988556319298 L371.0742424242428 186.21510008771781 L375.2459595959599 176.49825828809986 L379.41767676767705 166.26519095217014 L383.5893939393942 155.69172886775976 L387.76111111111135 144.95370282269965 L391.9328282828285 134.22694360482106 L396.10454545454564 123.68728200195494 L400.2762626262628 113.51054880193232 L404.44797979797994 103.87257479258429 L408.6196969696971 94.94919076174187 L412.79141414141424 86.91622749723612 L416.9631313131314 79.94951578689819 L421.13484848484853 74.22488641855907 L425.3065656565657 69.91817018004983 L429.47828282828283 67.20519785920143 L433.6499999999999 66.26180024384513 " fill="none" stroke-width="1.0" stroke="rgb(17,142,216)" stroke-opacity="1.0">
          </path>
        </g>
      </g>
    </g>
    <g class="plt-axis">
      <g transform="translate(4.0 152.16666666666666 ) rotate(-90.0 ) " class="plt-axis-title">
        <text text-anchor="middle" dy="0.7em">
        y
        </text>
      </g>
    </g>
    <g class="plt-axis">
      <g transform="translate(262.85 329.3333333333333 ) " class="plt-axis-title">
        <text text-anchor="middle">
        x
        </text>
      </g>
    </g>
  </g>
</svg>