<svg xmlns="http://www.w3.org/2000/svg" class="plt-container" width="500.0" height="333.3333333333333">
  <style type="text/css">
  .plt-container {
	font-family: "Lucida Grande", sans-serif;
	cursor: crosshair;
	user-select: none;
	-webkit-user-select: none;
	-moz-user-select: none;
	-ms-user-select: none;
}
.plt-backdrop {
   fill: white;
}
.plt-transparent .plt-backdrop {
   visibility: hidden;
}
text {
	font-size: 12px;
	fill: #3d3d3d;
	
	text-rendering: optimizeLegibility;
}
.plt-data-tooltip text {
	font-size: 12px;
}
.plt-axis-tooltip text {
	font-size: 10px;
}
.plt-axis line {
	shape-rendering: crispedges;
}
.plt-plot-title {

  font-size: 16.0px;
  font-weight: bold;
}
.plt-axis .tick text {

  font-size: 10.0px;
}
.plt-axis.small-tick-font .tick text {

  font-size: 8.0px;
}
.plt-axis-title text {

  font-size: 12.0px;
}
.plt_legend .legend-title text {

  font-size: 12.0px;
  font-weight: bold;
}
.plt_legend text {

  font-size: 10.0px;
}

  </style>
  <rect class="plt-backdrop" width="100%" height="100%">
  </rect>
  <g class="plt-plot">
    <g transform="translate(20.0 10.0 ) ">
      <g transform="translate(29.1 284.3333333333333 ) " class="plt-axis">
        <g class="tick" transform="translate(20.040495867768612 0.0 ) ">
          <line stroke-width="1.0" stroke="rgb(0,0,0)" stroke-opacity="1.0" x2="0.0" y2="6.0">
          </line>
          <g transform="translate(0.0 9.0 ) ">
            <text style="fill:#000000;" text-anchor="middle" dy="0.7em">
            1.0
            </text>
          </g>
        </g>
        <g class="tick" transform="translate(120.24297520661156 0.0 ) ">
          <line stroke-width="1.0" stroke="rgb(0,0,0)" stroke-opacity="1.0" x2="0.0" y2="6.0">
          </line>
          <g transform="translate(0.0 9.0 ) ">
            <text style="fill:#000000;" text-anchor="middle" dy="0.7em">
            1.5
            </text>
          </g>
        </g>
        <g class="tick" transform="translate(220.44545454545454 0.0 ) ">
          <line stroke-width="1.0" stroke="rgb(0,0,0)" stroke-opacity="1.0" x2="0.0" y2="6.0">
          </line>
          <g transform="translate(0.0 9.0 ) ">
            <text style="fill:#000000;" text-anchor="middle" dy="0.7em">
            2.0
            </text>
          </g>
        </g>
        <g class="tick" transform="translate(320.6479338842975 0.0 ) ">
          <line stroke-width="1.0" stroke="rgb(0,0,0)" stroke-opacity="1.0" x2="0.0" y2="6.0">
          </line>
          <g transform="translate(0.0 9.0 ) ">
            <text style="fill:#000000;" text-anchor="middle" dy="0.7em">
            2.5
            </text>
          </g>
        </g>
        <g class="tick" transform="translate(420.85041322314044 0.0 ) ">
          <line stroke-width="1.0" stroke="rgb(0,0,0)" stroke-opacity="1.0" x2="0.0" y2="6.0">
          </line>
          <g transform="translate(0.0 9.0 ) ">
            <text style="fill:#000000;" text-anchor="middle" dy="0.7em">
            3.0
            </text>
          </g>
        </g>
        <line x1="0.0" y1="0.0" x2="440.8909090909094" y2="0.0" stroke-width="1.0" stroke="rgb(0,0,0)" stroke-opacity="1.0">
        </line>
      </g>
      <g transform="translate(29.1 0.0 ) " class="plt-axis">
        <g class="tick" transform="translate(0.0 271.4090909090909 ) ">
          <line stroke-width="1.0" stroke="rgb(0,0,0)" stroke-opacity="1.0" x2="-6.0" y2="0.0">
          </line>
          <g transform="translate(-9.0 0.0 ) ">
            <text style="fill:#000000;" text-anchor="end" dy="0.35em">
            0.0
            </text>
          </g>
        </g>
        <g class="tick" transform="translate(0.0 217.23316687973198 ) ">
          <line stroke-width="1.0" stroke="rgb(0,0,0)" stroke-opacity="1.0" x2="-6.0" y2="0.0">
          </line>
          <g transform="translate(-9.0 0.0 ) ">
            <text style="fill:#000000;" text-anchor="end" dy="0.35em">
            0.1
            </text>
          </g>
        </g>
        <g class="tick" transform="translate(0.0 163.0572428503731 ) ">
          <line stroke-width="1.0" stroke="rgb(0,0,0)" stroke-opacity="1.0" x2="-6.0" y2="0.0">
          </line>
          <g transform="translate(-9.0 0.0 ) ">
            <text style="fill:#000000;" text-anchor="end" dy="0.35em">
            0.2
            </text>
          </g>
        </g>
        <g class="tick" transform="translate(0.0 108.88131882101419 ) ">
          <line stroke-width="1.0" stroke="rgb(0,0,0)" stroke-opacity="1.0" x2="-6.0" y2="0.0">
          </line>
          <g transform="translate(-9.0 0.0 ) ">
            <text style="fill:#000000;" text-anchor="end" dy="0.35em">
            0.3
            </text>
          </g>
        </g>
        <g class="tick" transform="translate(0.0 54.70539479165532 ) ">
          <line stroke-width="1.0" stroke="rgb(0,0,0)" stroke-opacity="1.0" x2="-6.0" y2="0.0">
          </line>
          <g transform="translate(-9.0 0.0 ) ">
            <text style="fill:#000000;" text-anchor="end" dy="0.35em">
            0.4
            </text>
          </g>
        </g>
        <g class="tick" transform="translate(0.0 0.5294707622964552 ) ">
          <line stroke-width="1.0" stroke="rgb(0,0,0)" stroke-opacity="1.0" x2="-6.0" y2="0.0">
          </line>
          <g transform="translate(-9.0 0.0 ) ">
            <text style="fill:#000000;" text-anchor="end" dy="0.35em">
            0.5
            </text>
          </g>
        </g>
        <line x1="0.0" y1="0.0" x2="0.0" y2="284.3333333333333" stroke-width="1.0" stroke="rgb(0,0,0)" stroke-opacity="1.0">
        </line>
      </g>
      <g transform="translate(29.1 0.0 ) " clip-path="url(#5otu5C)" clip-bounds-jfx="[rect (0.0, 0.0), (440.8909090909094, 284.3333333333333)]">
        <defs>
          <clipPath id="5otu5C">
            <rect x="0.0" y="0.0" width="440.8909090909094" height="284.3333333333333">
            </rect>
          </clipPath>
        </defs>
        <g>
          <path d="M20.040495867768612 271.4090909090909 L20.040495867768612 271.4090909090909 L24.08908089156023 268.7981328435874 L28.137665915351846 266.1871747780839 L32.18625093914346 263.5762167125804 L36.23483596293508 260.96525864707684 L40.283420986726696 258.35430058157334 L44.33200601051831 255.74334251606984 L48.38059103430993 253.13238445056635 L52.42917605810155 250.52142638506282 L56.47776108189316 247.91046831955933 L60.52634610568478 245.29951025405583 L64.5749311294764 242.6885521885523 L68.62351615326801 240.0775941230488 L72.67210117705963 237.46663605754532 L76.72068620085122 234.8556779920418 L80.76927122464286 232.2447199265383 L84.81785624843445 229.6337618610348 L88.8664412722261 227.02280379553127 L92.91502629601769 224.41184573002778 L96.96361131980933 221.80088766452428 L101.01219634360092 219.18992959902076 L105.06078136739256 216.57897153351726 L109.10936639118415 213.96801346801377 L113.1579514149758 211.35705540251024 L117.20653643876739 208.74609733700674 L121.25512146255903 206.13513927150325 L125.30370648635062 203.52418120599975 L129.35229151014227 200.91322314049623 L133.40087653393385 198.3022650749927 L137.4494615577255 195.6913070094892 L141.4980465815171 193.0803489439857 L145.54663160530873 190.46939087848222 L149.59521662910032 187.85843281297872 L153.64380165289197 185.2474747474752 L157.69238667668355 182.6365166819717 L161.7409717004752 180.02555861646817 L165.7895567242668 177.41460055096468 L169.83814174805843 174.80364248546118 L173.88672677185002 172.1926844199577 L177.93531179564167 169.5817263544542 L181.98389681943326 166.97076828895064 L186.0324818432249 164.35981022344714 L190.0810668670165 161.74885215794365 L194.12965189080813 159.13789409244015 L198.17823691459972 156.52693602693665 L202.22682193839137 153.91597796143313 L206.27540696218296 151.30501989592963 L210.3239919859746 148.6940618304261 L214.3725770097662 146.0831037649226 L218.42116203355783 143.47214569941912 L222.46974705734942 140.8611876339156 L226.51833208114107 138.25022956841207 L230.56691710493277 135.63927150290854 L234.61550212872442 133.02831343740502 L238.66408715251606 130.41735537190146 L242.71267217630776 127.80639730639791 L246.7612572000994 125.19543924089442 L250.80984222389105 122.58448117539086 L254.8584272476827 119.97352310988734 L258.9070122714744 117.36256504438379 L262.95559729526605 114.75160697888029 L267.0041823190577 112.14064891337674 L271.0527673428494 109.52969084787318 L275.10135236664104 106.91873278236966 L279.1499373904327 104.30777471686613 L283.1985224142243 101.69681665136261 L287.24710743801603 99.08585858585906 L291.2956924618077 96.4749005203555 L295.3442774855993 93.86394245485201 L299.39286250939097 91.25298438934846 L303.44144753318267 88.64202632384493 L307.4900325569743 86.03106825834138 L311.53861758076596 83.42011019283788 L315.58720260455766 80.80915212733433 L319.6357876283493 78.19819406183078 L323.68437265214095 75.58723599632725 L327.7329576759326 72.97627793082373 L331.78154269972424 70.3653198653202 L335.83012772351594 67.75436179981665 L339.87871274730765 65.1434037343131 L343.92729777109923 62.5324456688096 L347.97588279489094 59.92148760330605 L352.02446781868264 57.31052953780252 L356.0730528424742 54.69957147229897 L360.1216378662659 52.088613406795446 L364.1702228900575 49.47765534129192 L368.2188079138492 46.86669727578837 L372.2673929376409 44.255739210284844 L376.3159779614325 41.64478114478132 L380.3645629852242 39.033823079277795 L384.4131480090159 36.42286501377424 L388.4617330328075 33.81190694827069 L392.5103180565992 31.200948882767193 L396.5589030803909 28.58999081726364 L400.6074881041825 25.979032751760116 L404.6560731279742 23.368074686256563 L408.7046581517658 20.757116620753038 L412.7532431755575 18.146158555249514 L416.8018281993492 15.53520048974596 L420.8504132231408 12.924242424242436 " fill="none" stroke-width="1.0" stroke="rgb(17,142,216)" stroke-opacity="1.0">
          </path>
        </g>
      </g>
    </g>
    <g class="plt-axis">
      <g transform="translate(4.0 152.16666666666666 ) rotate(-90.0 ) " class="plt-axis-title">
        <text text-anchor="middle" dy="0.7em">
        y
        </text>
      </g>
    </g>
    <g class="plt-axis">
      <g transform="translate(269.54545454545473 329.3333333333333 ) " class="plt-axis-title">
        <text text-anchor="middle">
        x
        </text>
      </g>
    </g>
  </g>
</svg>