<svg xmlns="http://www.w3.org/2000/svg" class="plt-container" width="500.0" height="333.3333333333333">
  <style type="text/css">
  .plt-container {
	font-family: "Lucida Grande", sans-serif;
	cursor: crosshair;
	user-select: none;
	-webkit-user-select: none;
	-moz-user-select: none;
	-ms-user-select: none;
}
.plt-backdrop {
   fill: white;
}
.plt-transparent .plt-backdrop {
   visibility: hidden;
}
text {
	font-size: 12px;
	fill: #3d3d3d;
	
	text-rendering: optimizeLegibility;
}
.plt-data-tooltip text {
	font-size: 12px;
}
.plt-axis-tooltip text {
	font-size: 10px;
}
.plt-axis line {
	shape-rendering: crispedges;
}
.plt-plot-title {

  font-size: 16.0px;
  font-weight: bold;
}
.plt-axis .tick text {

  font-size: 10.0px;
}
.plt-axis.small-tick-font .tick text {

  font-size: 8.0px;
}
.plt-axis-title text {

  font-size: 12.0px;
}
.plt_legend .legend-title text {

  font-size: 12.0px;
  font-weight: bold;
}
.plt_legend text {

  font-size: 10.0px;
}

  </style>
  <rect class="plt-backdrop" width="100%" height="100%">
  </rect>
  <g class="plt-plot">
    <g transform="translate(20.0 10.0 ) ">
      <g transform="translate(15.7 284.3333333333333 ) " class="plt-axis">
        <g class="tick" transform="translate(20.65 0.0 ) ">
          <line stroke-width="1.0" stroke="rgb(0,0,0)" stroke-opacity="1.0" x2="0.0" y2="6.0">
          </line>
          <g transform="translate(0.0 9.0 ) ">
            <text style="fill:#000000;" text-anchor="middle" dy="0.7em">
            1
            </text>
          </g>
        </g>
        <g class="tick" transform="translate(89.48333333333431 0.0 ) ">
          <line stroke-width="1.0" stroke="rgb(0,0,0)" stroke-opacity="1.0" x2="0.0" y2="6.0">
          </line>
          <g transform="translate(0.0 9.0 ) ">
            <text style="fill:#000000;" text-anchor="middle" dy="0.7em">
            2
            </text>
          </g>
        </g>
        <g class="tick" transform="translate(158.31666666666862 0.0 ) ">
          <line stroke-width="1.0" stroke="rgb(0,0,0)" stroke-opacity="1.0" x2="0.0" y2="6.0">
          </line>
          <g transform="translate(0.0 9.0 ) ">
            <text style="fill:#000000;" text-anchor="middle" dy="0.7em">
            3
            </text>
          </g>
        </g>
        <g class="tick" transform="translate(227.15000000000296 0.0 ) ">
          <line stroke-width="1.0" stroke="rgb(0,0,0)" stroke-opacity="1.0" x2="0.0" y2="6.0">
          </line>
          <g transform="translate(0.0 9.0 ) ">
            <text style="fill:#000000;" text-anchor="middle" dy="0.7em">
            4
            </text>
          </g>
        </g>
        <g class="tick" transform="translate(295.9833333333373 0.0 ) ">
          <line stroke-width="1.0" stroke="rgb(0,0,0)" stroke-opacity="1.0" x2="0.0" y2="6.0">
          </line>
          <g transform="translate(0.0 9.0 ) ">
            <text style="fill:#000000;" text-anchor="middle" dy="0.7em">
            5
            </text>
          </g>
        </g>
        <g class="tick" transform="translate(364.8166666666716 0.0 ) ">
          <line stroke-width="1.0" stroke="rgb(0,0,0)" stroke-opacity="1.0" x2="0.0" y2="6.0">
          </line>
          <g transform="translate(0.0 9.0 ) ">
            <text style="fill:#000000;" text-anchor="middle" dy="0.7em">
            6
            </text>
          </g>
        </g>
        <g class="tick" transform="translate(433.65000000000595 0.0 ) ">
          <line stroke-width="1.0" stroke="rgb(0,0,0)" stroke-opacity="1.0" x2="0.0" y2="6.0">
          </line>
          <g transform="translate(0.0 9.0 ) ">
            <text style="fill:#000000;" text-anchor="middle" dy="0.7em">
            7
            </text>
          </g>
        </g>
        <line x1="0.0" y1="0.0" x2="454.3" y2="0.0" stroke-width="1.0" stroke="rgb(0,0,0)" stroke-opacity="1.0">
        </line>
      </g>
      <g transform="translate(15.7 0.0 ) " class="plt-axis">
        <g class="tick" transform="translate(0.0 253.28636487050284 ) ">
          <line stroke-width="1.0" stroke="rgb(0,0,0)" stroke-opacity="1.0" x2="-6.0" y2="0.0">
          </line>
          <g transform="translate(-9.0 0.0 ) ">
            <text style="fill:#000000;" text-anchor="end" dy="0.35em">
            2
            </text>
          </g>
        </g>
        <g class="tick" transform="translate(0.0 203.88808553954337 ) ">
          <line stroke-width="1.0" stroke="rgb(0,0,0)" stroke-opacity="1.0" x2="-6.0" y2="0.0">
          </line>
          <g transform="translate(-9.0 0.0 ) ">
            <text style="fill:#000000;" text-anchor="end" dy="0.35em">
            3
            </text>
          </g>
        </g>
        <g class="tick" transform="translate(0.0 154.4898062085839 ) ">
          <line stroke-width="1.0" stroke="rgb(0,0,0)" stroke-opacity="1.0" x2="-6.0" y2="0.0">
          </line>
          <g transform="translate(-9.0 0.0 ) ">
            <text style="fill:#000000;" text-anchor="end" dy="0.35em">
            4
            </text>
          </g>
        </g>
        <g class="tick" transform="translate(0.0 105.09152687762443 ) ">
          <line stroke-width="1.0" stroke="rgb(0,0,0)" stroke-opacity="1.0" x2="-6.0" y2="0.0">
          </line>
          <g transform="translate(-9.0 0.0 ) ">
            <text style="fill:#000000;" text-anchor="end" dy="0.35em">
            5
            </text>
          </g>
        </g>
        <g class="tick" transform="translate(0.0 55.69324754666496 ) ">
          <line stroke-width="1.0" stroke="rgb(0,0,0)" stroke-opacity="1.0" x2="-6.0" y2="0.0">
          </line>
          <g transform="translate(-9.0 0.0 ) ">
            <text style="fill:#000000;" text-anchor="end" dy="0.35em">
            6
            </text>
          </g>
        </g>
        <g class="tick" transform="translate(0.0 6.294968215705467 ) ">
          <line stroke-width="1.0" stroke="rgb(0,0,0)" stroke-opacity="1.0" x2="-6.0" y2="0.0">
          </line>
          <g transform="translate(-9.0 0.0 ) ">
            <text style="fill:#000000;" text-anchor="end" dy="0.35em">
            7
            </text>
          </g>
        </g>
        <line x1="0.0" y1="0.0" x2="0.0" y2="284.3333333333333" stroke-width="1.0" stroke="rgb(0,0,0)" stroke-opacity="1.0">
        </line>
      </g>
      <g transform="translate(15.7 0.0 ) " clip-path="url(#1YE0UW)" clip-bounds-jfx="[rect (0.0, 0.0), (454.3, 284.3333333333333)]">
        <defs>
          <clipPath id="1YE0UW">
            <rect x="0.0" y="0.0" width="454.3" height="284.3333333333333">
            </rect>
          </clipPath>
        </defs>
        <g>
          <path d="M20.65 203.88808553954337 L20.65 203.88808553954337 L21.47765531062125 190.77301844593225 L22.305310621242505 178.24590264364846 L23.132965931863758 166.2927351349867 L23.960621242485026 154.89971482891505 L24.78827655310628 144.05324084998733 L25.615931863727532 133.7399108536748 L26.443587174348785 123.94651934811722 L27.27124248497004 114.66005602229299 L28.09889779559129 105.86770408060826 L28.926553106212545 97.55683858390643 L29.754208416833812 89.71502479689525 L30.581863727455065 82.33001654199455 L31.40951903807632 75.38975455960252 L32.23717434869757 68.88236487478139 L33.064829659318825 62.796157170362676 L33.89248496994008 57.119623166470944 L34.72014028056133 51.84143500646758 L35.5477955911826 46.95044364931357 L36.37545090180385 42.43567726835147 L37.203106212425105 38.286339656506186 L38.03076152304636 34.49180863790622 L38.85841683366761 31.041634485922827 L39.686072144288865 27.92553834762913 L40.51372745491012 25.1334106746786 L41.341382765531385 22.655309660602313 L42.16903807615264 20.481459684525873 L42.99669338677389 18.60224976130513 L43.824348697395145 17.008231998081953 L44.6520040080164 15.690120057257957 L45.47965931863765 14.638787625889336 L46.307314629258904 13.845266891498738 L47.13496993988017 13.300747024308464 L47.962625250501425 12.996572665891563 L48.79028056112268 12.924242424242436 L49.61793587174393 13.075407375267389 L50.445591182365185 13.441869570693484 L51.27324649298644 14.015580552397182 L52.10090180360769 14.788639873152306 L52.92855711422896 15.753293623796822 L53.75621242485021 16.901932966819402 L54.583867735471465 18.22709267636486 L55.41152304609272 19.721449684658694 L56.23917835671397 21.377821634851728 L57.066833667335224 23.18916544028275 L57.89448897795648 25.148575850161706 L58.722144288577745 27.2492840216712 L59.549799599199 29.48465609848739 L60.37745490982025 31.84819179572071 L61.205110220441505 34.33352299127495 L62.03276553106276 36.93441232362687 L62.86042084168401 39.644751796023456 L63.688076152305264 42.458561387099735 L64.51573146292654 45.36998766791504 L65.34338677354779 48.37330242540918 L66.17104208416904 51.462901292277536 L66.9986973947903 54.633302383265004 L67.82635270541155 57.87914493787997 L68.6540080160328 61.19518796952724 L69.48166332665406 64.57630892105982 L70.30931863727531 68.01750232675033 L71.13697394789656 71.51387848068185 L71.96462925851782 75.06066211155763 L72.79228456913907 78.65319106393031 L73.61993987976032 82.28691498585022 L74.44759519038158 85.95739402293276 L75.27525050100283 89.66029751884594 L76.10290581162411 93.39140272221579 L76.93056112224536 97.14659349995213 L77.75821643286662 100.92185905699333 L78.58587174348787 104.71329266246977 L79.41352705410912 108.51709038228745 L80.24118236473038 112.32954981813009 L81.06883767535163 116.14706885288086 L81.89649298597288 119.96614440246333 L82.72414829659414 123.7833711741016 L83.55180360721539 127.59544043099964 L84.37945891783664 131.39913876344022 L85.2071142284579 135.19134686630238 L86.03476953907915 138.9690383229991 L86.8624248497004 142.7292783958334 L87.69008016032166 146.46922282277413 L88.51773547094291 150.18611662065067 L89.34539078156416 153.87729289476766 L90.17304609218542 157.540171654938 L91.00070140280667 161.17225863793547 L91.82835671342792 164.7711441363671 L92.65601202404915 168.33450183396397 L93.4836673346704 171.86008764729183 L94.31132264529163 175.34573857388094 L95.13897795591288 178.78937154677465 L95.9666332665341 182.18898229549796 L96.79428857715536 185.54264421344487 L97.62194388777658 188.84850723168503 L98.44959919839783 192.1047966991898 L99.27725450901906 195.3098122694775 L100.10490981964031 198.46192679367775 L100.93256513026154 201.5595852200153 L101.76022044088279 204.60130349971303 L102.58787575150401 207.5856674993141 L103.41553106212527 210.51133191942353 L104.24318637274652 213.37701921986894 L105.07084168336775 216.1815185512804 L105.898496993989 218.9236846930899 L106.72615230461022 221.6024369979497 L107.55380761523148 224.2167583425702 L108.3814629258527 226.76569408497664 L109.20911823647396 229.24835102818594 L110.03677354709518 231.66389639030163 L110.86442885771643 234.01155678102893 L111.69208416833766 236.29061718460883 L112.51973947895891 238.50041994917098 L113.34739478958014 240.64036378250674 L114.17505010020139 242.70990275426055 L115.00270541082261 244.70854530454122 L115.83036072144387 246.635853258952 L116.65801603206512 248.4914408500403 L117.48567134268635 250.2749737451664 L118.3133266533076 251.98616808079157 L119.14098196392882 253.6247895031853 L119.96863727455008 255.19065221555178 L120.7962925851713 256.6836180315758 L121.62394789579255 258.10359543538806 L122.45160320641378 259.45053864794886 L123.27925851703503 260.72444669985236 L124.10691382765626 261.9253625105489 L124.93456913827751 263.0533719739872 L125.76222444889873 264.108603050676 L126.58987975951999 265.091224866164 L127.41753507014121 266.0014468159404 L128.24519038076247 266.8395176767536 L129.07284569138372 267.6057247243493 L129.90050100200494 268.3003928576288 L130.7281563126262 268.9238837292251 L131.55581162324742 269.4765948824996 L132.38346693386868 269.95895889495694 L133.2111222444899 270.37144252808 L134.03877755511115 270.7145458835835 L134.86643286573238 270.98880156608743 L135.69408817635363 271.1947738522088 L136.52174348697486 271.33305786607406 L137.3493987975961 271.40427876124943 L138.17705410821733 271.40909090909093 L139.0047094188386 271.34817709351444 L139.8323647294598 271.22224771218345 L140.66002004008106 271.03203998411766 L141.48767535070232 270.77831716371963 L142.31533066132354 270.4618677612216 L143.1429859719448 270.0835047695507 L143.97064128256602 269.64406489761404 L144.79829659318727 269.1444078100031 L145.6259519038085 268.58541537311663 L146.45360721442975 267.9679909077037 L147.28126252505098 267.2930584478255 L148.10891783567223 266.5615620062365 L148.93657314629345 265.7744648461848 L149.7642284569147 264.93274875963186 L150.59188376753593 264.0374133518915 L151.4195390781572 263.0894753326878 L152.2471943887784 262.08996781363294 L153.07484969939966 261.0399396121235 L153.90250501002092 259.94045456165657 L154.73016032064214 258.7925908285651 L155.5578156312634 257.5974402351719 L156.38547094188462 256.35610758936383 L157.21312625250587 255.0697100205843 L158.0407815631271 253.73937632224585 L158.86843687374835 252.3662463005614 L159.69609218436958 250.95147012979493 L160.52374749499083 249.4962077139316 L161.35140280561205 248.0016280547668 L162.1790581162333 246.4689086264147 L163.00671342685453 244.89923475623607 L163.83436873747578 243.29379901218482 L164.662024048097 241.6538005965749 L165.48967935871826 239.98044474626533 L166.31733466933952 238.2749421392649 L167.14498997996074 236.5385083077564 L167.972645290582 234.77236305753968 L168.80030060120322 232.97772989389426 L169.62795591182447 231.155835453861 L170.4556112224457 229.307908944943 L171.28326653306695 227.43518159022625 L172.11092184368817 225.53888607991848 L172.93857715430943 223.62025602930865 L173.76623246493065 221.6805254431444 L174.5938877755519 219.72092818642952 L175.42154308617313 217.74269746164057 L176.24919839679438 215.74706529236246 L177.0768537074156 213.7352620133435 L177.90450901803686 211.70851576697004 L178.73216432865811 209.66805200615926 L179.55981963927934 207.61509300367263 L180.3874749499006 205.55085736784787 L181.21513026052182 203.47655956474972 L182.04278557114307 201.39340944674103 L182.8704408817643 199.3026117874725 L183.69809619238555 197.20536582329132 L184.52575150300677 195.10286480106993 L185.35340681362803 192.99629553245336 L186.18106212424925 190.88683795452607 L187.0087174348705 188.775664696898 L187.83637274549173 186.6639406552099 L188.66402805611298 184.5528225710579 L189.4916833667342 182.4434586183375 L190.31933867735546 180.33698799600612 L191.1469939879767 178.23454052726612 L191.97464929859794 176.137236265166 L192.8023046092192 174.04618510462106 L193.62995991984042 171.96248640085395 L194.45761523046167 169.88722859425363 L195.2852705410829 167.82148884165423 L196.11292585170415 165.76633265403265 L196.94058116232537 163.72281354062594 L197.76823647294663 161.69197265946724 L198.59589178356785 159.67483847434187 L199.4235470941891 157.672426418162 L200.25120240481033 155.6857385627605 L201.07885771543158 153.71576329510472 L201.9065130260528 151.7634749999289 L202.73416833667406 149.82983374878597 L203.5618236472953 147.91578499551886 L204.38947895791654 146.02225927815084 L205.2171342685378 144.150171927195 L206.04478957915902 142.3004227803833 L206.87244488978027 140.47389590381462 L207.7001002004015 138.6714593195222 L208.52775551102272 136.8939647394603 L209.35541082164397 135.14224730591005 L210.18306613226522 133.41712533830452 L211.01072144288648 131.71940008647343 L211.83837675350767 130.04985549030644 L212.66603206412893 128.4092579458362 L213.49368737475018 126.79835607774072 L214.32134268537143 125.2178805182644 L215.1489979959927 123.66854369255904 L215.97665330661388 122.15103961044363 L216.80430861723514 120.66604366458333 L217.6319639278564 119.21421243508837 L218.45961923847764 117.79618350053138 L219.28727454909884 116.41257525538447 L220.1149298597201 115.06398673387497 L220.94258517034135 113.75099744026161 L221.7702404809626 112.47416718552915 L222.5978957915838 111.23403593050136 L223.42555110220505 110.03112363537542 L224.2532064128263 108.86593011567356 L225.08086172344755 107.73893490461535 L225.90851703406875 106.65059712190833 L226.73617234469 105.6013553489581 L227.56382765531126 104.59162751049809 L228.3914829659325 103.6218107626382 L229.21913827655376 102.69228138733274 L230.04679358717496 101.80339469326745 L230.8744488977962 100.95548492316672 L231.70210420841747 100.14886516751804 L232.52975951903872 99.38382728471831 L233.35741482965992 98.66064182763748 L234.18507014028117 97.97955797660148 L235.01272545090242 97.34080347879663 L235.84038076152368 96.74458459408962 L236.66803607214487 96.19108604726995 L237.49569138276613 95.68047098671065 L238.32334669338738 95.21288094944703 L239.15100200400863 94.78843583267667 L239.97865731462988 94.40723387167708 L240.80631262525108 94.06935162414322 L241.63396793587233 93.77484396094496 L242.4616232464936 93.52374406330227 L243.28927855711484 93.31606342638088 L244.11693386773604 93.15179186930686 L244.9445891783573 93.03089755160033 L245.77224448897854 92.95332699602835 L246.5998997995998 92.91900511787765 L247.427555110221 92.92783526064545 L248.25521042084225 92.97969923815083 L249.0828657314635 93.0744573830653 L249.91052104208475 93.2119486018604 L250.73817635270595 93.39199043617776 L251.5658316633272 93.61437913061684 L252.39348697394846 93.87888970694087 L253.2211422845697 94.18527604470444 L254.04879759519096 94.53327096829844 L254.87645290581216 94.92258634041485 L255.7041082164334 95.35291316193099 L256.5317635270547 95.82392167821303 L257.35941883767595 96.33526149183803 L258.18707414829714 96.88656168173625 L259.0147294589184 97.4774309287522 L259.84238476953965 98.10745764762453 L260.6700400801609 98.7762101253862 L261.4976953907821 99.48323666618336 L262.32535070140335 100.22806574251274 L263.1530060120246 101.01020615287976 L263.98066132264586 101.82914718587455 L264.8083166332671 102.68435879066837 L265.6359719438883 103.57529175392835 L266.46362725450956 104.50137788315203 L267.2912825651308 105.46203019642064 L268.11893787575207 106.45664311857286 L268.94659318637326 107.48459268379591 L269.7742484969945 108.54523674463678 L270.60190380761577 109.63791518743497 L271.429559118237 110.76195015416911 L272.2572144288582 111.91664627072936 L273.0848697394795 113.10129088160343 L273.9125250501007 114.31515429098513 L274.740180360722 115.55749001030159 L275.5678356713432 116.82753501215865 L276.39549098196443 118.12450999070649 L277.2231462925857 119.44761962842597 L278.05080160320693 120.79605286932866 L278.8784569138282 122.16898319858473 L279.7061122244494 123.56556892856094 L280.53376753507064 124.98495349128615 L281.3614228456919 126.42626573732935 L282.18907815631314 127.88862024110139 L283.01673346693434 129.37111761257438 L283.8443887775556 130.87284481541937 L284.67204408817685 132.39287549156472 L285.4996993987981 133.9302702921751 L286.3273547094193 135.48407721504424 L287.15501002004055 137.0533319484142 L287.9826653306618 138.63705822120784 L288.81032064128306 140.23426815968512 L289.6379759519043 141.84396265051433 L290.4656312625255 143.46513171026697 L291.29328657314676 145.09675486132764 L292.120941883768 146.73780151422747 L292.94859719438927 148.38723135639205 L293.77625250501046 150.0439947473139 L294.6039078156317 151.70703312013893 L295.43156312625297 153.37527938967722 L296.2592184368742 155.047658366827 L297.0868737474954 156.7230871794257 L297.91452905811667 158.4004756995118 L298.7421843687379 160.07872697701404 L299.5698396793592 161.75673767985188 L300.3974949899804 163.43339854046246 L301.2251503006016 165.10759480874148 L302.0528056112229 166.7782067114076 L302.88046092184413 168.44410991778184 L303.7081162324654 170.10417601198947 L304.5357715430866 171.75727297157943 L305.36342685370784 173.40226565256413 L306.1910821643291 175.03801628087822 L307.01873747495034 176.66338495025556 L307.84639278557154 178.2772301265263 L308.6740480961928 179.8784091583344 L309.50170340681404 181.4657787942705 L310.3293587174353 183.03819570643094 L311.1570140280565 184.59451702038692 L311.98466933867775 186.13360085158203 L312.812324649299 187.6543068481413 L313.63997995992025 189.15549674010626 L314.4676352705415 190.6360348950827 L315.2952905811627 192.09478888031472 L316.12294589178396 193.53063003117032 L316.9506012024052 194.9424340260529 L317.77825651302646 196.32908146772917 L318.60591182364766 197.68945847107477 L319.4335671342689 199.02245725724205 L320.26122244489017 200.32697675424663 L321.0888777555114 201.6019232039711 L321.9165330661326 202.84621077558955 L322.74418837675387 204.05876218541297 L323.5718436873751 205.23850932314755 L324.3994989979964 206.3843938845824 L325.22715430861757 207.49536801068837 L326.0548096192388 208.57039493313766 L326.8824649298601 209.6084496262443 L327.71012024048133 210.6085194653246 L328.5377755511026 211.56960489147318 L329.3654308617238 212.49072008276346 L330.19308617234503 213.3708936318619 L331.0207414829663 214.20916923006487 L331.84839679358754 215.00460635775588 L332.67605210420874 215.75628098127578 L333.50370741483 216.46328625622272 L334.33136272545124 217.12473323716043 L335.1590180360725 217.73975159375289 L335.9866733466937 218.30749033331304 L336.81432865731495 218.82711852977903 L337.6419839679362 219.29782605909912 L338.46963927855745 219.7188243410448 L339.2972945891787 220.08934708743743 L340.1249498997999 220.4086510567948 L340.95260521042115 220.67601681540236 L341.7802605210424 220.89074950479664 L342.60791583166366 221.0521796156704 L343.43557114228486 221.15966376820057 L344.2632264529061 221.21258549878965 L345.09088176352736 221.2103560532304 L345.9185370741486 221.1524151862874 L346.7461923847698 221.03823196770045 L347.57384769539107 220.86730559460477 L348.4015030060123 220.6391662103728 L349.2291583166336 220.3533757298717 L350.05681362725477 220.00952867114296 L350.884468937876 219.6072529935027 L351.7121242484973 219.1462109420559 L352.53977955911853 218.62609989863515 L353.3674348697398 218.04665323915768 L354.195090180361 217.40764119739524 L355.02274549098223 216.70887173517576 L355.8504008016035 215.9501914189931 L356.67805611222474 215.13148630304073 L357.50571142284593 214.25268281866073 L358.3333667334672 213.31374867022302 L359.16102204408844 212.3146937374055 L359.9886773547097 211.25557098391783 L360.8163326653309 210.13647737261527 L361.64398797595214 208.95755478705868 L362.4716432865734 207.7189909594766 L363.29929859719465 206.42102040515513 L364.1269539078159 205.06392536324157 L364.9546092184371 203.64803674397265 L365.78226452905835 202.17373508231546 L366.6099198396796 200.64145149803693 L367.43757515030086 199.05166866218138 L368.26523046092206 197.40492176997827 L369.0928857715433 195.70179952015994 L369.92054108216456 193.94294510070202 L370.7481963927858 192.12905718098992 L371.575851703407 190.26089091039177 L372.40350701402826 188.3392589232588 L373.2311623246495 186.36503235034579 L374.05881763527077 184.33914183664672 L374.88647294589197 182.26257856565005 L375.7141282565132 180.1363952900171 L376.5417835671345 177.96170736867617 L377.3694388777557 175.7396938103329 L378.197094188377 173.4715983234125 L379.0247494989982 171.1587303724036 L379.85240480961943 168.80246624063625 L380.6800601202407 166.40425009946904 L381.50771543086194 163.9655950839052 L382.33537074148313 161.4880843746149 L383.1630260521044 158.97337228638943 L383.99068136272564 156.423185363011 L384.8183366733469 153.8393234785354 L385.6459919839681 151.2236609450007 L386.47364729458934 148.57814762655676 L387.3013026052106 145.90481006000425 L388.12895791583185 143.20575258176424 L388.9566132264531 140.48315846126033 L389.7842685370743 137.7392910407247 L390.61192384769555 134.9764948814099 L391.4395791583168 132.19719691624533 L392.26723446893806 129.40390760888917 L393.09488977955925 126.5992221192084 L393.9225450901805 123.78582147518156 L394.75020040080176 120.96647375121648 L395.577855711423 118.14403525288239 L396.4055110220442 115.32145170808118 L397.23316633266546 112.501759464607 L398.0608216432867 109.6880866941543 L398.88847695390797 106.88365460272183 L399.71613226452916 104.09177864746093 L400.5437875751504 101.31586975991476 L401.37144288577167 98.55943557570043 L402.1990981963929 95.82608167059544 L403.0267535070142 93.11951280305345 L403.8544088176354 90.44353416312947 L404.6820641282566 87.80205262783483 L405.5097194388779 85.19907802290032 L406.33737474949913 82.63872439096986 L407.16503006012033 80.12521126620675 L407.9926853707416 77.66286495531358 L408.82034068136284 75.25611982499225 L409.6479959919841 72.90951959579161 L410.4756513026053 70.62771864240852 L411.30330661322654 68.4154833003779 L412.1309619238478 66.27769317920553 L412.95861723446905 64.21934248190604 L413.7862725450903 62.245541330960975 L414.6139278557115 60.36151710070709 L415.44158316633275 58.57261575613279 L416.269238476954 56.88430319809254 L417.09689378757525 55.30216661495467 L417.92454909819645 53.83191584065071 L418.7522044088177 52.47938471915552 L419.57985971943896 51.25053247538801 L420.4075150300602 50.1514450925157 L421.2351703406814 49.18833669570256 L422.06282565130266 48.367550942252535 L422.8904809619239 47.69556241818867 L423.71813627254517 47.178978041240384 L424.54579158316636 46.824538470261075 L425.3734468937876 46.639119521057694 L426.20110220440887 46.62973358863485 L427.0287575150301 46.80353107587615 L427.8564128256514 47.16780182861862 L428.6840681362726 47.72997657717434 L429.5117234468938 48.49762838424732 L430.3393787575151 49.478474099283744 L431.16703406813633 50.680375819244034 L431.9946893787575 52.111342355770944 L432.8223446893788 53.77953070881921 L433.65000000000003 55.69324754665024 " fill="none" stroke-width="1.0" stroke="rgb(17,142,216)" stroke-opacity="1.0">
          </path>
        </g>
      </g>
    </g>
    <g class="plt-axis">
      <g transform="translate(4.0 152.16666666666666 ) rotate(-90.0 ) " class="plt-axis-title">
        <text text-anchor="middle" dy="0.7em">
        y
        </text>
      </g>
    </g>
    <g class="plt-axis">
      <g transform="translate(262.85 329.3333333333333 ) " class="plt-axis-title">
        <text text-anchor="middle">
        x
        </text>
      </g>
    </g>
  </g>
</svg>